<svg width="142" height="59" viewBox="0 0 142 59" fill="none" xmlns="http://www.w3.org/2000/svg">
<g filter="url(#filter0_d_156_1124)">
<rect x="4" y="4" width="134" height="51" rx="10" fill="#FFA800"/>
<path d="M15.3274 21.7273H19.3097L23.5156 31.9886H23.6946L27.9006 21.7273H31.8828V37H28.7507V27.0593H28.6239L24.6715 36.9254H22.5387L18.5863 27.022H18.4595V37H15.3274V21.7273ZM39.7037 37.2237C38.5255 37.2237 37.5113 36.9851 36.6611 36.5078C35.816 36.0256 35.1647 35.3445 34.7073 34.4645C34.2499 33.5795 34.0212 32.533 34.0212 31.3249C34.0212 30.1467 34.2499 29.1126 34.7073 28.2227C35.1647 27.3327 35.8085 26.6392 36.6388 26.142C37.474 25.6449 38.4534 25.3963 39.577 25.3963C40.3327 25.3963 41.0361 25.5181 41.6874 25.7617C42.3437 26.0004 42.9154 26.3608 43.4026 26.843C43.8948 27.3253 44.2776 27.9318 44.551 28.6626C44.8245 29.3885 44.9612 30.2386 44.9612 31.2131V32.0856H35.289V30.1168H41.9708C41.9708 29.6594 41.8714 29.2543 41.6725 28.9013C41.4736 28.5483 41.1977 28.2724 40.8447 28.0735C40.4967 27.8697 40.0915 27.7678 39.6292 27.7678C39.1469 27.7678 38.7194 27.8796 38.3465 28.1033C37.9786 28.3221 37.6903 28.6179 37.4814 28.9908C37.2726 29.3587 37.1657 29.7688 37.1608 30.2212V32.093C37.1608 32.6598 37.2652 33.1495 37.474 33.5621C37.6878 33.9748 37.9885 34.293 38.3763 34.5167C38.7641 34.7404 39.224 34.8523 39.7559 34.8523C40.1089 34.8523 40.4321 34.8026 40.7254 34.7031C41.0187 34.6037 41.2698 34.4545 41.4786 34.2557C41.6874 34.0568 41.8465 33.8132 41.9559 33.5249L44.8941 33.7188C44.7449 34.4247 44.4392 35.0412 43.9768 35.5682C43.5194 36.0902 42.9278 36.4979 42.202 36.7912C41.4811 37.0795 40.6483 37.2237 39.7037 37.2237ZM51.2552 37.1864C50.3852 37.1864 49.5972 36.9627 48.8912 36.5153C48.1903 36.0629 47.6334 35.3991 47.2208 34.5241C46.8131 33.6442 46.6093 32.5653 46.6093 31.2876C46.6093 29.9751 46.8206 28.8839 47.2432 28.0138C47.6657 27.1388 48.2275 26.4851 48.9285 26.0526C49.6345 25.6151 50.4076 25.3963 51.2478 25.3963C51.8891 25.3963 52.4236 25.5057 52.8511 25.7244C53.2836 25.9382 53.6317 26.2067 53.8952 26.5298C54.1636 26.848 54.3675 27.1612 54.5067 27.4695H54.6036V21.7273H57.773V37H54.6409V35.1655H54.5067C54.3575 35.4837 54.1462 35.7994 53.8728 36.1126C53.6043 36.4208 53.2538 36.6768 52.8213 36.8807C52.3937 37.0845 51.8717 37.1864 51.2552 37.1864ZM52.262 34.6584C52.7741 34.6584 53.2066 34.5192 53.5596 34.2408C53.9175 33.9574 54.191 33.5621 54.3799 33.055C54.5738 32.5479 54.6707 31.9538 54.6707 31.2727C54.6707 30.5916 54.5763 30 54.3873 29.4979C54.1984 28.9957 53.925 28.608 53.567 28.3345C53.2091 28.0611 52.7741 27.9244 52.262 27.9244C51.74 27.9244 51.3 28.0661 50.942 28.3494C50.5841 28.6328 50.3131 29.0256 50.1292 29.5277C49.9452 30.0298 49.8532 30.6115 49.8532 31.2727C49.8532 31.9389 49.9452 32.5281 50.1292 33.0401C50.3181 33.5472 50.589 33.945 50.942 34.2333C51.3 34.5167 51.74 34.6584 52.262 34.6584ZM60.3849 37V25.5455H63.5618V37H60.3849ZM61.9808 24.0689C61.5085 24.0689 61.1033 23.9123 60.7653 23.5991C60.4322 23.2809 60.2656 22.9006 60.2656 22.4581C60.2656 22.0206 60.4322 21.6452 60.7653 21.332C61.1033 21.0138 61.5085 20.8548 61.9808 20.8548C62.4531 20.8548 62.8558 21.0138 63.1889 21.332C63.527 21.6452 63.696 22.0206 63.696 22.4581C63.696 22.9006 63.527 23.2809 63.1889 23.5991C62.8558 23.9123 62.4531 24.0689 61.9808 24.0689ZM73.4521 32.1229V25.5455H76.629V37H73.5789V34.9194H73.4596C73.2011 35.5906 72.771 36.13 72.1695 36.5376C71.5729 36.9453 70.8445 37.1491 69.9845 37.1491C69.2188 37.1491 68.5452 36.9751 67.9635 36.6271C67.3818 36.2791 66.9269 35.7844 66.5988 35.1431C66.2757 34.5018 66.1116 33.7337 66.1066 32.8388V25.5455H69.2835V32.272C69.2884 32.9482 69.4699 33.4826 69.8279 33.8754C70.1858 34.2681 70.6656 34.4645 71.2671 34.4645C71.6499 34.4645 72.0079 34.3775 72.341 34.2035C72.6741 34.0245 72.9426 33.761 73.1464 33.413C73.3552 33.065 73.4571 32.6349 73.4521 32.1229ZM79.1701 37V25.5455H82.1978V27.5664H82.332C82.5707 26.8952 82.9684 26.3658 83.5252 25.978C84.082 25.5902 84.7482 25.3963 85.5238 25.3963C86.3093 25.3963 86.978 25.5927 87.5298 25.9854C88.0817 26.3732 88.4496 26.9002 88.6335 27.5664H88.7528C88.9865 26.9102 89.4091 26.3857 90.0206 25.9929C90.6371 25.5952 91.3654 25.3963 92.2056 25.3963C93.2745 25.3963 94.142 25.7369 94.8082 26.418C95.4794 27.0941 95.815 28.0536 95.815 29.2965V37H92.6456V29.9229C92.6456 29.2866 92.4766 28.8093 92.1385 28.4911C91.8004 28.1729 91.3778 28.0138 90.8707 28.0138C90.294 28.0138 89.8441 28.1978 89.521 28.5657C89.1978 28.9286 89.0362 29.4084 89.0362 30.005V37H85.9563V29.8558C85.9563 29.294 85.7947 28.8466 85.4716 28.5135C85.1534 28.1804 84.7333 28.0138 84.2113 28.0138C83.8583 28.0138 83.5401 28.1033 83.2567 28.2823C82.9783 28.4563 82.7571 28.7024 82.593 29.0206C82.429 29.3338 82.3469 29.7017 82.3469 30.1243V37H79.1701Z" fill="white"/>
<g clip-path="url(#clip0_156_1124)">
<path d="M126.904 33.2255H109.096C108.805 33.2255 108.526 33.1092 108.321 32.9022C108.115 32.6952 108 32.4144 108 32.1217C108 31.8289 108.115 31.5481 108.321 31.3411C108.526 31.1341 108.805 31.0178 109.096 31.0178H126.904C127.195 31.0178 127.474 31.1341 127.679 31.3411C127.885 31.5481 128 31.8289 128 32.1217C128 32.4144 127.885 32.6952 127.679 32.9022C127.474 33.1092 127.195 33.2255 126.904 33.2255Z" fill="white"/>
<path d="M126.904 27.9822H109.096C108.805 27.9822 108.526 27.8659 108.321 27.6589C108.115 27.4519 108 27.1711 108 26.8784C108 26.5856 108.115 26.3049 108.321 26.0978C108.526 25.8908 108.805 25.7745 109.096 25.7745H126.904C127.195 25.7745 127.474 25.8908 127.679 26.0978C127.885 26.3049 128 26.5856 128 26.8784C128 27.1711 127.885 27.4519 127.679 27.6589C127.474 27.8659 127.195 27.9822 126.904 27.9822Z" fill="white"/>
</g>
</g>
<defs>
<filter id="filter0_d_156_1124" x="0" y="0" width="142" height="59" filterUnits="userSpaceOnUse" color-interpolation-filters="sRGB">
<feFlood flood-opacity="0" result="BackgroundImageFix"/>
<feColorMatrix in="SourceAlpha" type="matrix" values="0 0 0 0 0 0 0 0 0 0 0 0 0 0 0 0 0 0 127 0" result="hardAlpha"/>
<feOffset/>
<feGaussianBlur stdDeviation="2"/>
<feColorMatrix type="matrix" values="0 0 0 0 0 0 0 0 0 0 0 0 0 0 0 0 0 0 0.1 0"/>
<feBlend mode="normal" in2="BackgroundImageFix" result="effect1_dropShadow_156_1124"/>
<feBlend mode="normal" in="SourceGraphic" in2="effect1_dropShadow_156_1124" result="shape"/>
</filter>
<clipPath id="clip0_156_1124">
<rect width="20" height="7.45098" fill="white" transform="translate(108 25.7745)"/>
</clipPath>
</defs>
</svg>
