<svg width="144" height="59" viewBox="0 0 144 59" fill="none" xmlns="http://www.w3.org/2000/svg">
<g filter="url(#filter0_d_156_1095)">
<rect x="4" y="4" width="136" height="51" rx="10" fill="#FF3D00"/>
<path d="M32.261 21.7273H35.4901V31.6456C35.4901 32.7592 35.2241 33.7337 34.6921 34.5689C34.1651 35.4041 33.4268 36.0554 32.4773 36.5227C31.5277 36.9851 30.4215 37.2163 29.1587 37.2163C27.891 37.2163 26.7823 36.9851 25.8327 36.5227C24.8832 36.0554 24.1449 35.4041 23.6179 34.5689C23.0909 33.7337 22.8274 32.7592 22.8274 31.6456V21.7273H26.0565V31.3697C26.0565 31.9513 26.1832 32.4684 26.4368 32.9208C26.6953 33.3732 27.0582 33.7287 27.5256 33.9872C27.9929 34.2457 28.5373 34.375 29.1587 34.375C29.7852 34.375 30.3295 34.2457 30.7919 33.9872C31.2592 33.7287 31.6197 33.3732 31.8732 32.9208C32.1317 32.4684 32.261 31.9513 32.261 31.3697V21.7273ZM38.0871 37V25.5455H41.167V27.544H41.2863C41.4951 26.8331 41.8456 26.2962 42.3378 25.9332C42.83 25.5653 43.3968 25.3814 44.0381 25.3814C44.1972 25.3814 44.3687 25.3913 44.5526 25.4112C44.7366 25.4311 44.8982 25.4585 45.0374 25.4933V28.3121C44.8882 28.2674 44.6819 28.2276 44.4184 28.1928C44.1549 28.158 43.9138 28.1406 43.695 28.1406C43.2277 28.1406 42.8101 28.2425 42.4422 28.4464C42.0793 28.6452 41.7909 28.9237 41.5771 29.2816C41.3683 29.6396 41.2639 30.0522 41.2639 30.5195V37H38.0871ZM51.3072 41.5341C50.2781 41.5341 49.3956 41.3924 48.6598 41.109C47.929 40.8306 47.3473 40.4503 46.9148 39.968C46.4822 39.4858 46.2013 38.9439 46.0721 38.3423L49.0103 37.9471C49.0998 38.1758 49.2415 38.3896 49.4354 38.5884C49.6293 38.7873 49.8853 38.9464 50.2035 39.0657C50.5266 39.19 50.9194 39.2521 51.3817 39.2521C52.0728 39.2521 52.642 39.0831 53.0895 38.745C53.5419 38.4119 53.7681 37.8526 53.7681 37.0671V34.9716H53.6339C53.4947 35.2898 53.2859 35.5906 53.0075 35.8739C52.729 36.1573 52.3711 36.3885 51.9336 36.5675C51.4961 36.7464 50.9741 36.8359 50.3675 36.8359C49.5075 36.8359 48.7244 36.6371 48.0185 36.2393C47.3175 35.8366 46.7582 35.2227 46.3406 34.3974C45.9279 33.5671 45.7216 32.5181 45.7216 31.2504C45.7216 29.9528 45.9329 28.869 46.3555 27.9989C46.7781 27.1289 47.3398 26.4776 48.0408 26.0451C48.7468 25.6126 49.5199 25.3963 50.3601 25.3963C51.0014 25.3963 51.5384 25.5057 51.9709 25.7244C52.4034 25.9382 52.7514 26.2067 53.0149 26.5298C53.2834 26.848 53.4897 27.1612 53.6339 27.4695H53.7532V25.5455H56.9077V37.1119C56.9077 38.0863 56.669 38.9016 56.1918 39.5579C55.7145 40.2141 55.0533 40.7063 54.2081 41.0344C53.3679 41.3675 52.4009 41.5341 51.3072 41.5341ZM51.3743 34.4496C51.8864 34.4496 52.3189 34.3228 52.6719 34.0692C53.0298 33.8107 53.3033 33.4428 53.4922 32.9656C53.6861 32.4833 53.783 31.9066 53.783 31.2354C53.783 30.5643 53.6886 29.9826 53.4996 29.4904C53.3107 28.9933 53.0373 28.608 52.6793 28.3345C52.3214 28.0611 51.8864 27.9244 51.3743 27.9244C50.8523 27.9244 50.4123 28.0661 50.0543 28.3494C49.6964 28.6278 49.4254 29.0156 49.2415 29.5128C49.0575 30.0099 48.9656 30.5842 48.9656 31.2354C48.9656 31.8967 49.0575 32.4684 49.2415 32.9506C49.4304 33.4279 49.7013 33.7983 50.0543 34.0618C50.4123 34.3203 50.8523 34.4496 51.3743 34.4496ZM64.6559 37.2237C63.4776 37.2237 62.4634 36.9851 61.6133 36.5078C60.7681 36.0256 60.1168 35.3445 59.6594 34.4645C59.2021 33.5795 58.9734 32.533 58.9734 31.3249C58.9734 30.1467 59.2021 29.1126 59.6594 28.2227C60.1168 27.3327 60.7607 26.6392 61.5909 26.142C62.4261 25.6449 63.4055 25.3963 64.5291 25.3963C65.2848 25.3963 65.9883 25.5181 66.6396 25.7617C67.2958 26.0004 67.8675 26.3608 68.3548 26.843C68.8469 27.3253 69.2298 27.9318 69.5032 28.6626C69.7766 29.3885 69.9134 30.2386 69.9134 31.2131V32.0856H60.2411V30.1168H66.9229C66.9229 29.6594 66.8235 29.2543 66.6246 28.9013C66.4258 28.5483 66.1499 28.2724 65.7969 28.0735C65.4489 27.8697 65.0437 27.7678 64.5813 27.7678C64.0991 27.7678 63.6715 27.8796 63.2987 28.1033C62.9308 28.3221 62.6424 28.6179 62.4336 28.9908C62.2248 29.3587 62.1179 29.7688 62.1129 30.2212V32.093C62.1129 32.6598 62.2173 33.1495 62.4261 33.5621C62.6399 33.9748 62.9407 34.293 63.3285 34.5167C63.7163 34.7404 64.1761 34.8523 64.7081 34.8523C65.0611 34.8523 65.3842 34.8026 65.6776 34.7031C65.9709 34.6037 66.2219 34.4545 66.4308 34.2557C66.6396 34.0568 66.7987 33.8132 66.908 33.5249L69.8462 33.7188C69.6971 34.4247 69.3913 35.0412 68.929 35.5682C68.4716 36.0902 67.88 36.4979 67.1541 36.7912C66.4332 37.0795 65.6005 37.2237 64.6559 37.2237ZM75.1634 30.3778V37H71.9865V25.5455H75.0142V27.5664H75.1484C75.402 26.9002 75.8271 26.3732 76.4237 25.9854C77.0202 25.5927 77.7436 25.3963 78.5938 25.3963C79.3892 25.3963 80.0827 25.5703 80.6744 25.9183C81.266 26.2663 81.7259 26.7635 82.054 27.4098C82.3821 28.0511 82.5462 28.8168 82.5462 29.7067V37H79.3693V30.2734C79.3743 29.5724 79.1953 29.0256 78.8324 28.6328C78.4695 28.2351 77.9698 28.0362 77.3335 28.0362C76.9059 28.0362 76.5281 28.1282 76.1999 28.3121C75.8768 28.4961 75.6232 28.7646 75.4393 29.1175C75.2603 29.4656 75.1683 29.8857 75.1634 30.3778ZM91.1427 25.5455V27.9318H84.2446V25.5455H91.1427ZM85.8106 22.8011H88.9875V33.4801C88.9875 33.7734 89.0322 34.0021 89.1217 34.1662C89.2112 34.3253 89.3355 34.4371 89.4946 34.5018C89.6586 34.5664 89.8476 34.5987 90.0613 34.5987C90.2105 34.5987 90.3596 34.5863 90.5088 34.5614C90.6579 34.5316 90.7723 34.5092 90.8518 34.4943L91.3515 36.8583C91.1924 36.908 90.9687 36.9652 90.6803 37.0298C90.392 37.0994 90.0415 37.1417 89.6288 37.1566C88.8632 37.1864 88.192 37.0845 87.6153 36.8509C87.0436 36.6172 86.5986 36.2543 86.2805 35.7621C85.9623 35.2699 85.8057 34.6484 85.8106 33.8977V22.8011Z" fill="white"/>
<g clip-path="url(#clip0_156_1095)">
<path d="M121.404 36.755C121.17 36.7554 120.941 36.6805 120.752 36.5414L112.5 30.4582L104.248 36.5414C104.132 36.627 104.001 36.6889 103.861 36.7237C103.721 36.7584 103.576 36.7653 103.433 36.7439C103.291 36.7226 103.154 36.6734 103.03 36.5992C102.907 36.525 102.799 36.4272 102.714 36.3114C102.628 36.1957 102.566 36.0642 102.531 35.9245C102.497 35.7848 102.49 35.6396 102.511 35.4973C102.554 35.2097 102.71 34.9511 102.944 34.7783L111.848 28.2079C112.037 28.0683 112.265 27.9929 112.5 27.9929C112.735 27.9929 112.963 28.0683 113.152 28.2079L122.056 34.7783C122.242 34.9153 122.38 35.1074 122.45 35.3272C122.52 35.5471 122.519 35.7835 122.447 36.0027C122.375 36.2219 122.235 36.4126 122.048 36.5477C121.86 36.6828 121.635 36.7554 121.404 36.755Z" fill="white"/>
<path d="M121.404 31.0058C121.17 31.0062 120.941 30.9314 120.752 30.7923L112.5 24.7091L104.248 30.7923C104.014 30.9651 103.721 31.0379 103.433 30.9948C103.145 30.9517 102.887 30.7961 102.714 30.5623C102.541 30.3285 102.468 30.0356 102.511 29.7481C102.554 29.4606 102.71 29.202 102.944 29.0292L111.848 22.4587C112.037 22.3191 112.265 22.2438 112.5 22.2438C112.735 22.2438 112.963 22.3191 113.152 22.4587L122.056 29.0292C122.242 29.1661 122.38 29.3582 122.45 29.5781C122.52 29.798 122.519 30.0344 122.447 30.2536C122.375 30.4727 122.235 30.6635 122.048 30.7986C121.86 30.9337 121.635 31.0062 121.404 31.0058Z" fill="white"/>
</g>
</g>
<defs>
<filter id="filter0_d_156_1095" x="0" y="0" width="144" height="59" filterUnits="userSpaceOnUse" color-interpolation-filters="sRGB">
<feFlood flood-opacity="0" result="BackgroundImageFix"/>
<feColorMatrix in="SourceAlpha" type="matrix" values="0 0 0 0 0 0 0 0 0 0 0 0 0 0 0 0 0 0 127 0" result="hardAlpha"/>
<feOffset/>
<feGaussianBlur stdDeviation="2"/>
<feColorMatrix type="matrix" values="0 0 0 0 0 0 0 0 0 0 0 0 0 0 0 0 0 0 0.1 0"/>
<feBlend mode="normal" in2="BackgroundImageFix" result="effect1_dropShadow_156_1095"/>
<feBlend mode="normal" in="SourceGraphic" in2="effect1_dropShadow_156_1095" result="shape"/>
</filter>
<clipPath id="clip0_156_1095">
<rect width="20" height="14.5098" fill="white" transform="translate(102.5 22.2451)"/>
</clipPath>
</defs>
</svg>
