<svg width="144" height="59" viewBox="0 0 144 59" fill="none" xmlns="http://www.w3.org/2000/svg">
<g filter="url(#filter0_d_156_1175)">
<rect x="4" y="4" width="136" height="51" rx="10" fill="#7AE229"/>
<path d="M36.8274 37V21.7273H40.0565V34.3377H46.604V37H36.8274ZM53.8582 37.2237C52.6998 37.2237 51.6981 36.9776 50.8529 36.4854C50.0127 35.9883 49.3639 35.2972 48.9065 34.4123C48.4491 33.5224 48.2204 32.4908 48.2204 31.3175C48.2204 30.1342 48.4491 29.1001 48.9065 28.2152C49.3639 27.3253 50.0127 26.6342 50.8529 26.142C51.6981 25.6449 52.6998 25.3963 53.8582 25.3963C55.0166 25.3963 56.0159 25.6449 56.8561 26.142C57.7013 26.6342 58.3525 27.3253 58.8099 28.2152C59.2673 29.1001 59.496 30.1342 59.496 31.3175C59.496 32.4908 59.2673 33.5224 58.8099 34.4123C58.3525 35.2972 57.7013 35.9883 56.8561 36.4854C56.0159 36.9776 55.0166 37.2237 53.8582 37.2237ZM53.8731 34.7628C54.4001 34.7628 54.8401 34.6136 55.1931 34.3153C55.5461 34.0121 55.8121 33.5994 55.991 33.0774C56.175 32.5554 56.267 31.9613 56.267 31.2951C56.267 30.6289 56.175 30.0348 55.991 29.5128C55.8121 28.9908 55.5461 28.5781 55.1931 28.2749C54.8401 27.9716 54.4001 27.82 53.8731 27.82C53.3412 27.82 52.8937 27.9716 52.5308 28.2749C52.1729 28.5781 51.9019 28.9908 51.718 29.5128C51.539 30.0348 51.4495 30.6289 51.4495 31.2951C51.4495 31.9613 51.539 32.5554 51.718 33.0774C51.9019 33.5994 52.1729 34.0121 52.5308 34.3153C52.8937 34.6136 53.3412 34.7628 53.8731 34.7628ZM63.5342 37L60.417 25.5455H63.6311L65.406 33.2415H65.5104L67.3598 25.5455H70.5143L72.3936 33.1967H72.4905L74.2355 25.5455H77.4422L74.3325 37H70.9692L69.0004 29.7962H68.8588L66.89 37H63.5342Z" fill="white"/>
<path d="M98.5 31.0061C98.2654 31.0065 98.0369 30.9317 97.848 30.7926L88.9449 24.2229C88.8291 24.1373 88.7312 24.0298 88.657 23.9065C88.5827 23.7831 88.5335 23.6464 88.5121 23.504C88.469 23.2166 88.5419 22.9237 88.7148 22.6899C88.8877 22.4562 89.1465 22.3006 89.4342 22.2575C89.7219 22.2144 90.0149 22.2872 90.2489 22.46L98.5 28.5425L106.751 22.46C106.867 22.3744 106.999 22.3125 107.138 22.2778C107.278 22.243 107.423 22.2361 107.566 22.2575C107.708 22.2788 107.845 22.328 107.969 22.4022C108.092 22.4764 108.2 22.5742 108.285 22.6899C108.371 22.8057 108.433 22.9372 108.468 23.0768C108.502 23.2165 108.509 23.3617 108.488 23.504C108.466 23.6464 108.417 23.7831 108.343 23.9065C108.269 24.0298 108.171 24.1373 108.055 24.2229L99.152 30.7926C98.9631 30.9317 98.7346 31.0065 98.5 31.0061Z" fill="white"/>
<path d="M98.5 36.7547C98.2654 36.7551 98.0369 36.6802 97.848 36.5412L88.9449 29.9714C88.711 29.7986 88.5553 29.5401 88.5121 29.2526C88.469 28.9651 88.5419 28.6723 88.7148 28.4385C88.8877 28.2047 89.1465 28.0491 89.4342 28.006C89.7219 27.9629 90.0149 28.0358 90.2489 28.2085L98.5 34.291L106.751 28.2085C106.985 28.0358 107.278 27.9629 107.566 28.006C107.854 28.0491 108.112 28.2047 108.285 28.4385C108.458 28.6723 108.531 28.9651 108.488 29.2526C108.445 29.5401 108.289 29.7986 108.055 29.9714L99.152 36.5412C98.9631 36.6802 98.7346 36.7551 98.5 36.7547Z" fill="white"/>
</g>
<defs>
<filter id="filter0_d_156_1175" x="0" y="0" width="144" height="59" filterUnits="userSpaceOnUse" color-interpolation-filters="sRGB">
<feFlood flood-opacity="0" result="BackgroundImageFix"/>
<feColorMatrix in="SourceAlpha" type="matrix" values="0 0 0 0 0 0 0 0 0 0 0 0 0 0 0 0 0 0 127 0" result="hardAlpha"/>
<feOffset/>
<feGaussianBlur stdDeviation="2"/>
<feColorMatrix type="matrix" values="0 0 0 0 0 0 0 0 0 0 0 0 0 0 0 0 0 0 0.1 0"/>
<feBlend mode="normal" in2="BackgroundImageFix" result="effect1_dropShadow_156_1175"/>
<feBlend mode="normal" in="SourceGraphic" in2="effect1_dropShadow_156_1175" result="shape"/>
</filter>
</defs>
</svg>
