<svg width="31" height="31" viewBox="0 0 31 31" fill="none" xmlns="http://www.w3.org/2000/svg">
<path d="M24.832 28.5017H2.83203V6.50171H15.052C15.6043 6.50171 16.052 6.05399 16.052 5.50171C16.052 4.94942 15.6043 4.50171 15.052 4.50171H2.83203C2.3016 4.50171 1.79289 4.71242 1.41782 5.0875C1.04274 5.46257 0.832031 5.97128 0.832031 6.50171V28.5017C0.832031 29.0321 1.04274 29.5408 1.41782 29.9159C1.79289 30.291 2.3016 30.5017 2.83203 30.5017H24.832C25.3625 30.5017 25.8712 30.291 26.2462 29.9159C26.6213 29.5408 26.832 29.0321 26.832 28.5017V16.5017C26.832 15.9494 26.3843 15.5017 25.832 15.5017C25.2797 15.5017 24.832 15.9494 24.832 16.5017V28.5017Z" fill="#CDCDCD"/>
<path d="M30.362 4.34165L26.992 0.971653C26.8424 0.821684 26.6647 0.702697 26.4691 0.621511C26.2735 0.540325 26.0638 0.498535 25.852 0.498535C25.6402 0.498535 25.4305 0.540325 25.2348 0.621511C25.0392 0.702697 24.8615 0.821684 24.712 0.971653L11.6053 14.1548C11.2109 14.5515 10.9353 15.0504 10.8096 15.5954L9.89199 19.5717C9.8447 19.8048 9.84967 20.0456 9.90655 20.2766C9.96342 20.5076 10.0708 20.7231 10.2209 20.9077C10.371 21.0922 10.5602 21.2412 10.7748 21.3439C10.9894 21.4466 11.2241 21.5005 11.462 21.5017C11.585 21.5152 11.709 21.5152 11.832 21.5017L15.8189 20.6221C16.3823 20.4978 16.8979 20.2136 17.304 19.8038L30.362 6.62165C30.512 6.47209 30.6309 6.29441 30.7121 6.09879C30.7933 5.90317 30.8351 5.69345 30.8351 5.48165C30.8351 5.26985 30.7933 5.06014 30.7121 4.86451C30.6309 4.66889 30.512 4.49121 30.362 4.34165ZM15.642 18.5817L11.982 19.3917L12.832 15.7617L23.152 5.37165L25.972 8.19165L15.642 18.5817ZM27.102 7.06165L24.282 4.24165L25.832 2.66165L28.672 5.50165L27.102 7.06165Z" fill="#CDCDCD"/>
</svg>
