<svg width="31" height="31" viewBox="0 0 31 31" fill="none" xmlns="http://www.w3.org/2000/svg">
<path d="M22.1665 6.49979L22.1665 24.4998C22.166 25.0301 21.9551 25.5385 21.5801 25.9134C21.2052 26.2884 20.6968 26.4993 20.1665 26.4998L16.1665 26.4998C15.6362 26.4993 15.1278 26.2884 14.7529 25.9134C14.3779 25.5385 14.167 25.0301 14.1665 24.4998L14.1665 6.49979C14.167 5.96952 14.3779 5.46112 14.7529 5.08616C15.1278 4.7112 15.6362 4.50032 16.1665 4.49979L20.1665 4.49979C20.6968 4.50032 21.2052 4.7112 21.5801 5.08616C21.9551 5.46112 22.166 5.96952 22.1665 6.49979ZM16.1665 24.4998L20.1665 24.4998L20.1665 6.49979L16.1665 6.49979L16.1665 24.4998ZM16.1665 6.49979L16.1665 24.4998C16.166 25.0301 15.9551 25.5384 15.5801 25.9134C15.2052 26.2883 14.6968 26.4992 14.1665 26.4998L10.1665 26.4998C9.63623 26.4992 9.12783 26.2883 8.75288 25.9134C8.37792 25.5384 8.16703 25.03 8.1665 24.4998L8.1665 6.49977C8.16703 5.9695 8.37792 5.4611 8.75287 5.08614C9.12783 4.71118 9.63623 4.5003 10.1665 4.49977L14.1665 4.49977C14.6968 4.5003 15.2052 4.71118 15.5801 5.08614C15.9551 5.4611 16.166 5.96952 16.1665 6.49979ZM10.1665 24.4998L14.1665 24.4998L14.1665 6.49979L10.1665 6.49977L10.1665 24.4998ZM10.1665 6.49977L10.1665 24.4998C10.166 25.03 9.95509 25.5384 9.58013 25.9134C9.20517 26.2883 8.69677 26.4992 8.1665 26.4998L4.1665 26.4998C3.63623 26.4992 3.12783 26.2883 2.75288 25.9134C2.37792 25.5384 2.16703 25.03 2.1665 24.4998L2.1665 6.49977C2.16703 5.9695 2.37792 5.4611 2.75287 5.08614C3.12783 4.71118 3.63623 4.5003 4.1665 4.49977L8.1665 4.49977C8.69677 4.5003 9.20517 4.71118 9.58013 5.08614C9.95509 5.4611 10.166 5.9695 10.1665 6.49977ZM4.1665 24.4998L8.1665 24.4998L8.1665 6.49977L4.1665 6.49977L4.1665 24.4998Z" fill="#CDCDCD"/>
<path d="M28.1665 6.50001L28.1665 24.5C28.166 25.0303 27.9551 25.5387 27.5801 25.9136C27.2052 26.2886 26.6968 26.4995 26.1665 26.5L22.1665 26.5C21.6362 26.4995 21.1278 26.2886 20.7529 25.9136C20.3779 25.5387 20.167 25.0301 20.1665 24.4998L20.1665 6.49979C20.167 5.96952 20.3779 5.46134 20.7529 5.08638C21.1278 4.71142 21.6362 4.50054 22.1665 4.50001L26.1665 4.50001C26.6968 4.50054 27.2052 4.71142 27.5801 5.08638C27.9551 5.46134 28.166 5.96974 28.1665 6.50001ZM22.1665 24.4998L26.1665 24.5L26.1665 6.50001L22.1665 6.49979L22.1665 24.4998Z" fill="#CDCDCD"/>
</svg>
