<svg width="31" height="31" viewBox="0 0 31 31" fill="none" xmlns="http://www.w3.org/2000/svg">
<path d="M24.5 4.5H6.5C5.39543 4.5 4.5 5.39648 4.5 6.50105C4.5 6.52939 4.5 6.54928 4.5 6.55917V24.5592C4.5 25.6311 5.36998 26.5 6.44187 26.5C6.47009 26.5 6.48998 26.5 6.49999 26.5H24.5C24.51 26.5 24.5299 26.5 24.5581 26.5C25.63 26.5 26.5 25.6311 26.5 24.5592V6.55915C26.5 6.54925 26.5 6.52937 26.5 6.50104C26.5 5.39648 25.6046 4.5 24.5 4.5ZM17.5 24.5592H6.5V16.5591H17.5V24.5592ZM17.5 14.5591H6.5V6.55917L17.5 6.55915V14.5591ZM24.5 24.5592H19.5V6.55917H24.5V24.5592Z" fill="#CDCDCD"/>
</svg>
