<svg width="17" height="13" viewBox="0 0 17 13" fill="none" xmlns="http://www.w3.org/2000/svg">
<path d="M8.50002 5.25476C8.69945 5.25443 8.89372 5.31633 9.05427 5.43137L16.6228 10.8653C16.7212 10.9361 16.8044 11.025 16.8675 11.127C16.9307 11.2291 16.9725 11.3422 16.9907 11.4599C17.0273 11.6977 16.9654 11.9399 16.8184 12.1333C16.6714 12.3266 16.4514 12.4553 16.2068 12.4909C15.9623 12.5266 15.7131 12.4664 15.5143 12.3234L8.50002 7.2925L1.48577 12.3234C1.3873 12.3942 1.27545 12.4454 1.15662 12.4742C1.03779 12.5029 0.914301 12.5086 0.793203 12.4909C0.672104 12.4733 0.555771 12.4326 0.450844 12.3712C0.345915 12.3099 0.254446 12.229 0.181662 12.1333C0.108878 12.0375 0.0562005 11.9288 0.0266405 11.8132C-0.0029196 11.6977 -0.00878469 11.5776 0.009379 11.4599C0.0275446 11.3422 0.0693823 11.2291 0.132508 11.127C0.195632 11.025 0.278805 10.9361 0.37728 10.8653L7.94577 5.43137C8.10631 5.31633 8.30059 5.25443 8.50002 5.25476Z" fill="white"/>
<path d="M8.50002 0.499879C8.69945 0.499544 8.89372 0.561447 9.05427 0.676482L16.6228 6.11045C16.8216 6.25336 16.954 6.46724 16.9907 6.70502C17.0273 6.9428 16.9654 7.18501 16.8184 7.37837C16.6714 7.57173 16.4514 7.70039 16.2068 7.73606C15.9623 7.77173 15.7131 7.71147 15.5143 7.56856L8.50002 2.53761L1.48577 7.56856C1.28689 7.71147 1.03777 7.77173 0.793203 7.73606C0.548634 7.70039 0.328657 7.57173 0.181662 7.37837C0.0346666 7.18501 -0.027305 6.9428 0.009379 6.70502C0.0460649 6.46723 0.178402 6.25336 0.37728 6.11044L7.94577 0.676482C8.10631 0.561447 8.30059 0.499544 8.50002 0.499879Z" fill="white"/>
</svg>
