<svg width="41" height="42" viewBox="0 0 41 42" fill="none" xmlns="http://www.w3.org/2000/svg">
<g clip-path="url(#clip0_10119_3730)">
<path d="M40.9078 2.25787C41.001 2.02503 41.0238 1.76996 40.9734 1.52427C40.923 1.27859 40.8016 1.0531 40.6243 0.875758C40.4469 0.698417 40.2215 0.577022 39.9758 0.526624C39.7301 0.476226 39.475 0.499042 39.2422 0.592241L1.96549 15.5034C1.6372 15.6348 1.35154 15.8543 1.13993 16.1376C0.928322 16.4209 0.798974 16.757 0.766125 17.1091C0.733275 17.4612 0.798196 17.8155 0.953742 18.1331C1.10929 18.4506 1.34943 18.7191 1.64774 18.909L14.4474 27.0526L18.3706 33.218C18.5559 33.4977 18.8435 33.6936 19.1717 33.7636C19.4999 33.8335 19.8424 33.772 20.1257 33.5921C20.4089 33.4122 20.6103 33.1283 20.6866 32.8016C20.7628 32.4748 20.7078 32.1311 20.5334 31.8445L17.0074 26.3044L36.2107 7.10099L31.3548 19.2421C31.2881 19.399 31.2534 19.5677 31.2527 19.7382C31.2519 19.9086 31.2853 20.0776 31.3507 20.235C31.4161 20.3925 31.5123 20.5353 31.6336 20.6551C31.7549 20.7749 31.8989 20.8693 32.0572 20.9327C32.2154 20.9962 32.3847 21.0274 32.5552 21.0245C32.7257 21.0217 32.8939 20.9849 33.0499 20.9162C33.206 20.8475 33.3468 20.7484 33.464 20.6246C33.5813 20.5008 33.6727 20.3549 33.7328 20.1954L40.9078 2.25787ZM34.399 5.2893L15.1957 24.4927L4.07699 17.4176L34.399 5.2893Z" fill="white"/>
<path d="M41 32.5312C41 34.9099 40.0551 37.1911 38.3731 38.8731C36.6911 40.5551 34.4099 41.5 32.0312 41.5C29.6526 41.5 27.3714 40.5551 25.6894 38.8731C24.0074 37.1911 23.0625 34.9099 23.0625 32.5312C23.0625 30.1526 24.0074 27.8714 25.6894 26.1894C27.3714 24.5074 29.6526 23.5625 32.0312 23.5625C34.4099 23.5625 36.6911 24.5074 38.3731 26.1894C40.0551 27.8714 41 30.1526 41 32.5312ZM35.8929 28.2288C35.7486 28.1423 35.5886 28.0851 35.4221 28.0604C35.2556 28.0357 35.0859 28.0441 34.9227 28.085C34.7595 28.126 34.6059 28.1986 34.4707 28.2989C34.3356 28.3992 34.2215 28.5252 34.1351 28.6696L31.1369 33.6664L29.7353 32.2647C29.4947 32.0242 29.1684 31.889 28.8281 31.889C28.4879 31.889 28.1616 32.0242 27.921 32.2647C27.6804 32.5053 27.5453 32.8316 27.5453 33.1719C27.5453 33.5121 27.6804 33.8384 27.921 34.079L29.9044 36.0598C30.1108 36.2667 30.3617 36.4237 30.638 36.519C30.9142 36.6143 31.2086 36.6453 31.4986 36.6097C31.7887 36.5742 32.0668 36.4729 32.3119 36.3137C32.5569 36.1544 32.7624 35.9414 32.9127 35.6908L36.3337 29.9867C36.4202 29.8423 36.4774 29.6823 36.5021 29.5159C36.5268 29.3494 36.5184 29.1797 36.4775 29.0164C36.4365 28.8532 36.3639 28.6996 36.2636 28.5645C36.1633 28.4293 36.0373 28.3153 35.8929 28.2288Z" fill="white"/>
</g>
<defs>
<clipPath id="clip0_10119_3730">
<rect width="41" height="41" fill="white" transform="translate(0 0.5)"/>
</clipPath>
</defs>
</svg>
