<svg width="31" height="31" viewBox="0 0 31 31" fill="none" xmlns="http://www.w3.org/2000/svg">
<path d="M8.80303 27.3462H22.7424V26.35C21.7667 25.5333 20.6864 24.9211 19.5015 24.5132C18.3167 24.1044 17.0737 23.9 15.7727 23.9C14.4717 23.9 13.2288 24.1044 12.0439 24.5132C10.8591 24.9211 9.77879 25.5333 8.80303 26.35V27.3462ZM5.81818 25.09C7.07273 23.8533 8.72776 22.8789 10.3893 22.1668C12.05 21.4556 13.8444 21.1 15.7727 21.1C17.701 21.1 19.4959 21.4556 21.1575 22.1668C22.8182 22.8789 24.2 23.9556 25.4545 25.1923L25.5303 6.88461H5.81818V25.09ZM15.7727 18.3C14.4253 18.3 13.2753 17.8217 12.3227 16.865C11.3702 15.9083 10.8939 14.7533 10.8939 13.4C10.8939 12.0467 11.3702 10.8917 12.3227 9.935C13.2753 8.97833 14.4253 8.5 15.7727 8.5C17.1202 8.5 18.2702 8.97833 19.2227 9.935C20.1753 10.8917 20.6515 12.0467 20.6515 13.4C20.6515 14.7533 20.1753 15.9083 19.2227 16.865C18.2702 17.8217 17.1202 18.3 15.7727 18.3ZM15.7727 15.5C16.3535 15.5 16.847 15.2956 17.2531 14.8868C17.6601 14.4789 17.8636 13.9833 17.8636 13.4C17.8636 12.8167 17.6601 12.3211 17.2531 11.9132C16.847 11.5044 16.3535 11.3 15.7727 11.3C15.1919 11.3 14.6985 11.5044 14.2924 11.9132C13.8853 12.3211 13.6818 12.8167 13.6818 13.4C13.6818 13.9833 13.8853 14.4789 14.2924 14.8868C14.6985 15.2956 15.1919 15.5 15.7727 15.5ZM4.63087 29.5C4.08074 29.5 3.63392 29.0556 3.63089 28.5055L3.50554 5.73627C3.50248 5.18185 3.95108 4.73077 4.50552 4.73077H7.40909V2.5C7.40909 1.94772 7.85681 1.5 8.40909 1.5H9.19697C9.74925 1.5 10.197 1.94772 10.197 2.5V4.73077H21.3485V2.5C21.3485 1.94772 21.7962 1.5 22.3485 1.5H23.1641C23.7054 1.5 24.1485 1.93076 24.1637 2.47187L24.2273 4.73077H26.5C27.0523 4.73077 27.5 5.17848 27.5 5.73077V28.5C27.5 29.0523 27.0523 29.5 26.5 29.5L4.63087 29.5Z" fill="#CDCDCD"/>
</svg>
