<svg width="334" height="82" viewBox="0 0 334 82" fill="none" xmlns="http://www.w3.org/2000/svg">
<g filter="url(#filter0_d_576_4863)">
<rect x="4" y="4" width="326" height="74" rx="20" fill="#2A3647" shape-rendering="crispEdges"/>
<path d="M41.6392 38H39.7898C39.6804 37.468 39.489 37.0007 39.2156 36.598C38.9471 36.1953 38.619 35.8572 38.2312 35.5838C37.8484 35.3054 37.4233 35.0966 36.956 34.9574C36.4886 34.8182 36.0014 34.7486 35.4943 34.7486C34.5696 34.7486 33.7319 34.9822 32.9812 35.4496C32.2354 35.9169 31.6413 36.6055 31.1989 37.5153C30.7614 38.4251 30.5426 39.5412 30.5426 40.8636C30.5426 42.1861 30.7614 43.3022 31.1989 44.212C31.6413 45.1218 32.2354 45.8104 32.9812 46.2777C33.7319 46.745 34.5696 46.9787 35.4943 46.9787C36.0014 46.9787 36.4886 46.9091 36.956 46.7699C37.4233 46.6307 37.8484 46.4244 38.2312 46.1509C38.619 45.8725 38.9471 45.532 39.2156 45.1293C39.489 44.7216 39.6804 44.2543 39.7898 43.7273H41.6392C41.5 44.5078 41.2464 45.2063 40.8786 45.8228C40.5107 46.4393 40.0533 46.9638 39.5064 47.3963C38.9595 47.8239 38.3455 48.1495 37.6644 48.3732C36.9883 48.5969 36.2649 48.7088 35.4943 48.7088C34.1918 48.7088 33.0334 48.3906 32.0192 47.7543C31.005 47.1179 30.207 46.2131 29.6254 45.0398C29.0437 43.8665 28.7528 42.4744 28.7528 40.8636C28.7528 39.2528 29.0437 37.8608 29.6254 36.6875C30.207 35.5142 31.005 34.6094 32.0192 33.973C33.0334 33.3366 34.1918 33.0185 35.4943 33.0185C36.2649 33.0185 36.9883 33.1303 37.6644 33.354C38.3455 33.5778 38.9595 33.9059 39.5064 34.3384C40.0533 34.766 40.5107 35.288 40.8786 35.9045C41.2464 36.516 41.5 37.2145 41.6392 38ZM49.0425 48.7386C48.0084 48.7386 47.1011 48.4925 46.3206 48.0004C45.545 47.5082 44.9385 46.8196 44.501 45.9347C44.0684 45.0497 43.8522 44.0156 43.8522 42.8324C43.8522 41.6392 44.0684 40.5977 44.501 39.7077C44.9385 38.8178 45.545 38.1268 46.3206 37.6346C47.1011 37.1424 48.0084 36.8963 49.0425 36.8963C50.0766 36.8963 50.9814 37.1424 51.757 37.6346C52.5376 38.1268 53.1441 38.8178 53.5766 39.7077C54.0141 40.5977 54.2329 41.6392 54.2329 42.8324C54.2329 44.0156 54.0141 45.0497 53.5766 45.9347C53.1441 46.8196 52.5376 47.5082 51.757 48.0004C50.9814 48.4925 50.0766 48.7386 49.0425 48.7386ZM49.0425 47.1577C49.828 47.1577 50.4743 46.9563 50.9814 46.5536C51.4885 46.1509 51.8639 45.6214 52.1075 44.9652C52.3511 44.3089 52.4729 43.598 52.4729 42.8324C52.4729 42.0668 52.3511 41.3533 52.1075 40.6921C51.8639 40.0309 51.4885 39.4964 50.9814 39.0888C50.4743 38.6811 49.828 38.4773 49.0425 38.4773C48.257 38.4773 47.6107 38.6811 47.1036 39.0888C46.5965 39.4964 46.2211 40.0309 45.9775 40.6921C45.7339 41.3533 45.6121 42.0668 45.6121 42.8324C45.6121 43.598 45.7339 44.3089 45.9775 44.9652C46.2211 45.6214 46.5965 46.1509 47.1036 46.5536C47.6107 46.9563 48.257 47.1577 49.0425 47.1577ZM58.6793 41.6094V48.5H56.9194V37.0455H58.6197V38.8352H58.7688C59.0373 38.2536 59.445 37.7862 59.9918 37.4332C60.5387 37.0753 61.2447 36.8963 62.1097 36.8963C62.8853 36.8963 63.5639 37.0554 64.1456 37.3736C64.7273 37.6868 65.1797 38.1641 65.5028 38.8054C65.826 39.4418 65.9876 40.2472 65.9876 41.2216V48.5H64.2276V41.3409C64.2276 40.4411 63.994 39.7401 63.5266 39.2379C63.0593 38.7308 62.418 38.4773 61.6026 38.4773C61.0408 38.4773 60.5387 38.5991 60.0962 38.8427C59.6587 39.0863 59.3132 39.4418 59.0597 39.9091C58.8061 40.3764 58.6793 40.9432 58.6793 41.6094ZM74.1851 37.0455V38.5369H68.249V37.0455H74.1851ZM69.9791 34.3011H71.7391V45.2188C71.7391 45.7159 71.8112 46.0888 71.9553 46.3374C72.1045 46.581 72.2934 46.745 72.5221 46.8295C72.7558 46.9091 73.0019 46.9489 73.2604 46.9489C73.4543 46.9489 73.6134 46.9389 73.7377 46.919C73.862 46.8942 73.9614 46.8743 74.036 46.8594L74.3939 48.4403C74.2746 48.4851 74.108 48.5298 73.8943 48.5746C73.6805 48.6243 73.4095 48.6491 73.0814 48.6491C72.5843 48.6491 72.097 48.5423 71.6198 48.3285C71.1475 48.1147 70.7547 47.7891 70.4415 47.3516C70.1333 46.9141 69.9791 46.3622 69.9791 45.696V34.3011ZM80.2032 48.7685C79.4774 48.7685 78.8186 48.6317 78.227 48.3583C77.6354 48.0799 77.1656 47.6797 76.8176 47.1577C76.4695 46.6307 76.2955 45.9943 76.2955 45.2486C76.2955 44.5923 76.4248 44.0604 76.6833 43.6527C76.9419 43.2401 77.2874 42.9169 77.7199 42.6832C78.1524 42.4496 78.6297 42.2756 79.1517 42.1612C79.6787 42.0419 80.2082 41.9474 80.7401 41.8778C81.4362 41.7884 82.0004 41.7212 82.433 41.6765C82.8705 41.6268 83.1887 41.5447 83.3875 41.4304C83.5914 41.3161 83.6933 41.1172 83.6933 40.8338V40.7741C83.6933 40.0384 83.4919 39.4666 83.0892 39.0589C82.6915 38.6513 82.0874 38.4474 81.2771 38.4474C80.4369 38.4474 79.7781 38.6314 79.3009 38.9993C78.8236 39.3672 78.488 39.7599 78.2941 40.1776L76.6237 39.581C76.922 38.8849 77.3197 38.343 77.8169 37.9553C78.319 37.5625 78.8659 37.2891 79.4575 37.1349C80.0541 36.9759 80.6407 36.8963 81.2174 36.8963C81.5853 36.8963 82.0079 36.9411 82.4852 37.0305C82.9674 37.1151 83.4323 37.2915 83.8797 37.56C84.3321 37.8285 84.7075 38.2337 85.0058 38.7756C85.3041 39.3175 85.4532 40.0433 85.4532 40.9531V48.5H83.6933V46.9489H83.6038C83.4845 47.1974 83.2856 47.4634 83.0072 47.7468C82.7288 48.0302 82.3584 48.2713 81.896 48.4702C81.4337 48.669 80.8694 48.7685 80.2032 48.7685ZM80.4717 47.1875C81.1677 47.1875 81.7544 47.0508 82.2316 46.7773C82.7139 46.5039 83.0768 46.1509 83.3204 45.7184C83.569 45.2859 83.6933 44.831 83.6933 44.3537V42.7429C83.6187 42.8324 83.4546 42.9144 83.2011 42.989C82.9525 43.0586 82.6642 43.1207 82.336 43.1754C82.0129 43.2251 81.6972 43.2699 81.3889 43.3097C81.0857 43.3445 80.8396 43.3743 80.6507 43.3991C80.1933 43.4588 79.7657 43.5558 79.368 43.69C78.9752 43.8192 78.657 44.0156 78.4134 44.2791C78.1748 44.5376 78.0555 44.8906 78.0555 45.3381C78.0555 45.9496 78.2817 46.4119 78.7341 46.7251C79.1915 47.0334 79.7707 47.1875 80.4717 47.1875ZM93.3189 48.7386C92.245 48.7386 91.3203 48.4851 90.5447 47.978C89.7692 47.4709 89.1726 46.7724 88.755 45.8825C88.3374 44.9925 88.1286 43.9759 88.1286 42.8324C88.1286 41.669 88.3423 40.6424 88.7699 39.7525C89.2024 38.8576 89.804 38.1591 90.5746 37.657C91.3501 37.1499 92.255 36.8963 93.2891 36.8963C94.0945 36.8963 94.8203 37.0455 95.4666 37.3438C96.1129 37.642 96.6424 38.0597 97.055 38.5966C97.4677 39.1335 97.7237 39.7599 97.8232 40.4759H96.0632C95.929 39.9538 95.6307 39.4915 95.1683 39.0888C94.7109 38.6811 94.0945 38.4773 93.3189 38.4773C92.6328 38.4773 92.0313 38.6562 91.5142 39.0142C91.0021 39.3672 90.6019 39.8668 90.3136 40.5131C90.0302 41.1545 89.8885 41.9077 89.8885 42.7727C89.8885 43.6577 90.0277 44.4283 90.3061 45.0845C90.5895 45.7408 90.9872 46.2504 91.4993 46.6133C92.0163 46.9762 92.6229 47.1577 93.3189 47.1577C93.7763 47.1577 94.1914 47.0781 94.5643 46.919C94.9371 46.7599 95.2528 46.5312 95.5114 46.233C95.7699 45.9347 95.9538 45.5767 96.0632 45.1591H97.8232C97.7237 45.8352 97.4776 46.4442 97.0849 46.9862C96.6971 47.5231 96.1825 47.9506 95.5412 48.2688C94.9048 48.582 94.1641 48.7386 93.3189 48.7386ZM105.377 37.0455V38.5369H99.4414V37.0455H105.377ZM101.172 34.3011H102.931V45.2188C102.931 45.7159 103.004 46.0888 103.148 46.3374C103.297 46.581 103.486 46.745 103.714 46.8295C103.948 46.9091 104.194 46.9489 104.453 46.9489C104.647 46.9489 104.806 46.9389 104.93 46.919C105.054 46.8942 105.154 46.8743 105.228 46.8594L105.586 48.4403C105.467 48.4851 105.3 48.5298 105.087 48.5746C104.873 48.6243 104.602 48.6491 104.274 48.6491C103.777 48.6491 103.289 48.5423 102.812 48.3285C102.34 48.1147 101.947 47.7891 101.634 47.3516C101.326 46.9141 101.172 46.3622 101.172 45.696V34.3011ZM122.045 39.6108L120.464 40.0582C120.364 39.7947 120.218 39.5387 120.024 39.2901C119.835 39.0366 119.576 38.8278 119.248 38.6637C118.92 38.4996 118.5 38.4176 117.988 38.4176C117.287 38.4176 116.703 38.5792 116.235 38.9023C115.773 39.2205 115.542 39.6257 115.542 40.1179C115.542 40.5554 115.701 40.9009 116.019 41.1545C116.337 41.408 116.835 41.6193 117.511 41.7884L119.211 42.206C120.235 42.4545 120.998 42.8349 121.5 43.3469C122.002 43.854 122.254 44.5078 122.254 45.3082C122.254 45.9645 122.065 46.5511 121.687 47.0682C121.314 47.5852 120.792 47.9929 120.121 48.2912C119.45 48.5895 118.669 48.7386 117.779 48.7386C116.611 48.7386 115.644 48.4851 114.878 47.978C114.113 47.4709 113.628 46.7301 113.424 45.7557L115.094 45.3381C115.254 45.9545 115.554 46.4169 115.997 46.7251C116.444 47.0334 117.028 47.1875 117.749 47.1875C118.57 47.1875 119.221 47.0135 119.703 46.6655C120.19 46.3125 120.434 45.8899 120.434 45.3977C120.434 45 120.295 44.6669 120.016 44.3984C119.738 44.125 119.31 43.9212 118.734 43.7869L116.825 43.3395C115.776 43.0909 115.005 42.7056 114.513 42.1836C114.026 41.6566 113.782 40.9979 113.782 40.2074C113.782 39.5611 113.963 38.9893 114.326 38.4922C114.694 37.995 115.194 37.6048 115.825 37.3214C116.462 37.038 117.183 36.8963 117.988 36.8963C119.121 36.8963 120.011 37.1449 120.658 37.642C121.309 38.1392 121.771 38.7955 122.045 39.6108ZM132.122 43.8168V37.0455H133.881V48.5H132.122V46.5611H132.002C131.734 47.1428 131.316 47.6374 130.749 48.0451C130.183 48.4478 129.467 48.6491 128.602 48.6491C127.886 48.6491 127.249 48.4925 126.693 48.1793C126.136 47.8612 125.698 47.3839 125.38 46.7475C125.062 46.1062 124.903 45.2983 124.903 44.3239V37.0455H126.663V44.2045C126.663 45.0398 126.896 45.706 127.364 46.2031C127.836 46.7003 128.438 46.9489 129.168 46.9489C129.606 46.9489 130.051 46.837 130.503 46.6133C130.961 46.3896 131.343 46.0465 131.652 45.5842C131.965 45.1218 132.122 44.5327 132.122 43.8168ZM141.758 48.7386C140.684 48.7386 139.76 48.4851 138.984 47.978C138.209 47.4709 137.612 46.7724 137.194 45.8825C136.777 44.9925 136.568 43.9759 136.568 42.8324C136.568 41.669 136.782 40.6424 137.209 39.7525C137.642 38.8576 138.243 38.1591 139.014 37.657C139.79 37.1499 140.694 36.8963 141.729 36.8963C142.534 36.8963 143.26 37.0455 143.906 37.3438C144.552 37.642 145.082 38.0597 145.494 38.5966C145.907 39.1335 146.163 39.7599 146.263 40.4759H144.503C144.368 39.9538 144.07 39.4915 143.608 39.0888C143.15 38.6811 142.534 38.4773 141.758 38.4773C141.072 38.4773 140.471 38.6562 139.954 39.0142C139.442 39.3672 139.041 39.8668 138.753 40.5131C138.47 41.1545 138.328 41.9077 138.328 42.7727C138.328 43.6577 138.467 44.4283 138.746 45.0845C139.029 45.7408 139.427 46.2504 139.939 46.6133C140.456 46.9762 141.062 47.1577 141.758 47.1577C142.216 47.1577 142.631 47.0781 143.004 46.919C143.377 46.7599 143.692 46.5312 143.951 46.233C144.209 45.9347 144.393 45.5767 144.503 45.1591H146.263C146.163 45.8352 145.917 46.4442 145.524 46.9862C145.137 47.5231 144.622 47.9506 143.981 48.2688C143.344 48.582 142.604 48.7386 141.758 48.7386ZM153.489 48.7386C152.415 48.7386 151.49 48.4851 150.715 47.978C149.939 47.4709 149.343 46.7724 148.925 45.8825C148.507 44.9925 148.298 43.9759 148.298 42.8324C148.298 41.669 148.512 40.6424 148.94 39.7525C149.372 38.8576 149.974 38.1591 150.744 37.657C151.52 37.1499 152.425 36.8963 153.459 36.8963C154.264 36.8963 154.99 37.0455 155.637 37.3438C156.283 37.642 156.812 38.0597 157.225 38.5966C157.638 39.1335 157.894 39.7599 157.993 40.4759H156.233C156.099 39.9538 155.801 39.4915 155.338 39.0888C154.881 38.6811 154.264 38.4773 153.489 38.4773C152.803 38.4773 152.201 38.6562 151.684 39.0142C151.172 39.3672 150.772 39.8668 150.483 40.5131C150.2 41.1545 150.058 41.9077 150.058 42.7727C150.058 43.6577 150.198 44.4283 150.476 45.0845C150.759 45.7408 151.157 46.2504 151.669 46.6133C152.186 46.9762 152.793 47.1577 153.489 47.1577C153.946 47.1577 154.361 47.0781 154.734 46.919C155.107 46.7599 155.423 46.5312 155.681 46.233C155.94 45.9347 156.124 45.5767 156.233 45.1591H157.993C157.894 45.8352 157.648 46.4442 157.255 46.9862C156.867 47.5231 156.352 47.9506 155.711 48.2688C155.075 48.582 154.334 48.7386 153.489 48.7386ZM165.368 48.7386C164.265 48.7386 163.313 48.495 162.512 48.0078C161.717 47.5156 161.103 46.8295 160.67 45.9496C160.243 45.0646 160.029 44.0355 160.029 42.8622C160.029 41.6889 160.243 40.6548 160.67 39.7599C161.103 38.8601 161.704 38.1591 162.475 37.657C163.251 37.1499 164.155 36.8963 165.189 36.8963C165.786 36.8963 166.375 36.9957 166.957 37.1946C167.539 37.3935 168.068 37.7166 168.545 38.1641C169.023 38.6065 169.403 39.1932 169.686 39.924C169.97 40.6548 170.111 41.5547 170.111 42.6236V43.3693H161.282V41.848H168.322C168.322 41.2017 168.192 40.625 167.934 40.1179C167.68 39.6108 167.317 39.2106 166.845 38.9173C166.378 38.6239 165.826 38.4773 165.189 38.4773C164.488 38.4773 163.882 38.6513 163.37 38.9993C162.863 39.3423 162.472 39.7898 162.199 40.3416C161.926 40.8935 161.789 41.4851 161.789 42.1165V43.1307C161.789 43.9957 161.938 44.729 162.236 45.3306C162.54 45.9272 162.96 46.3821 163.497 46.6953C164.034 47.0036 164.657 47.1577 165.368 47.1577C165.831 47.1577 166.248 47.093 166.621 46.9638C166.999 46.8295 167.325 46.6307 167.598 46.3672C167.872 46.0987 168.083 45.7656 168.232 45.3679L169.932 45.8452C169.753 46.4219 169.453 46.929 169.03 47.3665C168.607 47.799 168.085 48.1371 167.464 48.3807C166.843 48.6193 166.144 48.7386 165.368 48.7386ZM180.902 39.6108L179.321 40.0582C179.222 39.7947 179.075 39.5387 178.881 39.2901C178.692 39.0366 178.434 38.8278 178.106 38.6637C177.778 38.4996 177.357 38.4176 176.845 38.4176C176.144 38.4176 175.56 38.5792 175.093 38.9023C174.631 39.2205 174.399 39.6257 174.399 40.1179C174.399 40.5554 174.558 40.9009 174.877 41.1545C175.195 41.408 175.692 41.6193 176.368 41.7884L178.068 42.206C179.093 42.4545 179.856 42.8349 180.358 43.3469C180.86 43.854 181.111 44.5078 181.111 45.3082C181.111 45.9645 180.922 46.5511 180.544 47.0682C180.171 47.5852 179.649 47.9929 178.978 48.2912C178.307 48.5895 177.526 48.7386 176.637 48.7386C175.468 48.7386 174.501 48.4851 173.736 47.978C172.97 47.4709 172.485 46.7301 172.281 45.7557L173.952 45.3381C174.111 45.9545 174.412 46.4169 174.854 46.7251C175.302 47.0334 175.886 47.1875 176.607 47.1875C177.427 47.1875 178.078 47.0135 178.561 46.6655C179.048 46.3125 179.291 45.8899 179.291 45.3977C179.291 45 179.152 44.6669 178.874 44.3984C178.595 44.125 178.168 43.9212 177.591 43.7869L175.682 43.3395C174.633 43.0909 173.862 42.7056 173.37 42.1836C172.883 41.6566 172.639 40.9979 172.639 40.2074C172.639 39.5611 172.821 38.9893 173.184 38.4922C173.552 37.995 174.051 37.6048 174.683 37.3214C175.319 37.038 176.04 36.8963 176.845 36.8963C177.979 36.8963 178.869 37.1449 179.515 37.642C180.166 38.1392 180.629 38.7955 180.902 39.6108ZM188.861 37.0455V38.5369H182.686V37.0455H188.861ZM184.536 48.5V35.4645C184.536 34.8082 184.69 34.2614 184.998 33.8239C185.306 33.3864 185.707 33.0582 186.199 32.8395C186.691 32.6207 187.21 32.5114 187.757 32.5114C188.19 32.5114 188.543 32.5462 188.816 32.6158C189.09 32.6854 189.294 32.75 189.428 32.8097L188.921 34.331C188.831 34.3011 188.707 34.2638 188.548 34.2191C188.394 34.1744 188.19 34.152 187.936 34.152C187.355 34.152 186.935 34.2986 186.676 34.592C186.422 34.8853 186.296 35.3153 186.296 35.8821V48.5H184.536ZM198.546 43.8168V37.0455H200.306V48.5H198.546V46.5611H198.427C198.159 47.1428 197.741 47.6374 197.174 48.0451C196.607 48.4478 195.892 48.6491 195.026 48.6491C194.311 48.6491 193.674 48.4925 193.117 48.1793C192.561 47.8612 192.123 47.3839 191.805 46.7475C191.487 46.1062 191.328 45.2983 191.328 44.3239V37.0455H193.088V44.2045C193.088 45.0398 193.321 45.706 193.789 46.2031C194.261 46.7003 194.862 46.9489 195.593 46.9489C196.031 46.9489 196.476 46.837 196.928 46.6133C197.385 46.3896 197.768 46.0465 198.077 45.5842C198.39 45.1218 198.546 44.5327 198.546 43.8168ZM205.29 33.2273V48.5H203.53V33.2273H205.29ZM210.273 33.2273V48.5H208.513V33.2273H210.273ZM214.63 52.7955C214.332 52.7955 214.066 52.7706 213.832 52.7209C213.598 52.6761 213.437 52.6314 213.347 52.5866L213.795 51.0355C214.222 51.1449 214.6 51.1847 214.928 51.1548C215.256 51.125 215.547 50.9783 215.801 50.7148C216.059 50.4563 216.296 50.0362 216.509 49.4545L216.837 48.5597L212.602 37.0455H214.511L217.673 46.1733H217.792L220.954 37.0455H222.863L218.001 50.1705C217.782 50.7621 217.511 51.2518 217.188 51.6396C216.865 52.0323 216.489 52.3232 216.062 52.5121C215.639 52.701 215.162 52.7955 214.63 52.7955ZM235.746 48.7386C234.672 48.7386 233.747 48.4851 232.972 47.978C232.196 47.4709 231.599 46.7724 231.182 45.8825C230.764 44.9925 230.555 43.9759 230.555 42.8324C230.555 41.669 230.769 40.6424 231.197 39.7525C231.629 38.8576 232.231 38.1591 233.001 37.657C233.777 37.1499 234.682 36.8963 235.716 36.8963C236.521 36.8963 237.247 37.0455 237.893 37.3438C238.54 37.642 239.069 38.0597 239.482 38.5966C239.894 39.1335 240.15 39.7599 240.25 40.4759H238.49C238.356 39.9538 238.057 39.4915 237.595 39.0888C237.138 38.6811 236.521 38.4773 235.746 38.4773C235.06 38.4773 234.458 38.6562 233.941 39.0142C233.429 39.3672 233.029 39.8668 232.74 40.5131C232.457 41.1545 232.315 41.9077 232.315 42.7727C232.315 43.6577 232.454 44.4283 232.733 45.0845C233.016 45.7408 233.414 46.2504 233.926 46.6133C234.443 46.9762 235.05 47.1577 235.746 47.1577C236.203 47.1577 236.618 47.0781 236.991 46.919C237.364 46.7599 237.68 46.5312 237.938 46.233C238.197 45.9347 238.381 45.5767 238.49 45.1591H240.25C240.15 45.8352 239.904 46.4442 239.512 46.9862C239.124 47.5231 238.609 47.9506 237.968 48.2688C237.332 48.582 236.591 48.7386 235.746 48.7386ZM242.823 48.5V37.0455H244.523V38.7756H244.642C244.851 38.2088 245.229 37.7489 245.776 37.396C246.323 37.043 246.939 36.8665 247.625 36.8665C247.755 36.8665 247.916 36.869 248.11 36.8739C248.304 36.8789 248.451 36.8864 248.55 36.8963V38.6861C248.49 38.6712 248.354 38.6488 248.14 38.619C247.931 38.5842 247.71 38.5668 247.476 38.5668C246.919 38.5668 246.422 38.6836 245.985 38.9173C245.552 39.146 245.209 39.4641 244.956 39.8718C244.707 40.2745 244.583 40.7344 244.583 41.2514V48.5H242.823ZM255.09 48.7386C253.986 48.7386 253.034 48.495 252.234 48.0078C251.438 47.5156 250.824 46.8295 250.392 45.9496C249.964 45.0646 249.751 44.0355 249.751 42.8622C249.751 41.6889 249.964 40.6548 250.392 39.7599C250.824 38.8601 251.426 38.1591 252.197 37.657C252.972 37.1499 253.877 36.8963 254.911 36.8963C255.508 36.8963 256.097 36.9957 256.679 37.1946C257.26 37.3935 257.79 37.7166 258.267 38.1641C258.744 38.6065 259.125 39.1932 259.408 39.924C259.691 40.6548 259.833 41.5547 259.833 42.6236V43.3693H251.003V41.848H258.043C258.043 41.2017 257.914 40.625 257.655 40.1179C257.402 39.6108 257.039 39.2106 256.567 38.9173C256.099 38.6239 255.547 38.4773 254.911 38.4773C254.21 38.4773 253.604 38.6513 253.092 38.9993C252.584 39.3423 252.194 39.7898 251.921 40.3416C251.647 40.8935 251.511 41.4851 251.511 42.1165V43.1307C251.511 43.9957 251.66 44.729 251.958 45.3306C252.261 45.9272 252.681 46.3821 253.218 46.6953C253.755 47.0036 254.379 47.1577 255.09 47.1577C255.552 47.1577 255.97 47.093 256.343 46.9638C256.721 46.8295 257.046 46.6307 257.32 46.3672C257.593 46.0987 257.805 45.7656 257.954 45.3679L259.654 45.8452C259.475 46.4219 259.174 46.929 258.752 47.3665C258.329 47.799 257.807 48.1371 257.186 48.3807C256.564 48.6193 255.866 48.7386 255.09 48.7386ZM265.881 48.7685C265.155 48.7685 264.496 48.6317 263.905 48.3583C263.313 48.0799 262.843 47.6797 262.495 47.1577C262.147 46.6307 261.973 45.9943 261.973 45.2486C261.973 44.5923 262.103 44.0604 262.361 43.6527C262.62 43.2401 262.965 42.9169 263.398 42.6832C263.83 42.4496 264.307 42.2756 264.829 42.1612C265.356 42.0419 265.886 41.9474 266.418 41.8778C267.114 41.7884 267.678 41.7212 268.111 41.6765C268.548 41.6268 268.866 41.5447 269.065 41.4304C269.269 41.3161 269.371 41.1172 269.371 40.8338V40.7741C269.371 40.0384 269.17 39.4666 268.767 39.0589C268.369 38.6513 267.765 38.4474 266.955 38.4474C266.115 38.4474 265.456 38.6314 264.979 38.9993C264.501 39.3672 264.166 39.7599 263.972 40.1776L262.301 39.581C262.6 38.8849 262.997 38.343 263.495 37.9553C263.997 37.5625 264.544 37.2891 265.135 37.1349C265.732 36.9759 266.318 36.8963 266.895 36.8963C267.263 36.8963 267.686 36.9411 268.163 37.0305C268.645 37.1151 269.11 37.2915 269.557 37.56C270.01 37.8285 270.385 38.2337 270.684 38.7756C270.982 39.3175 271.131 40.0433 271.131 40.9531V48.5H269.371V46.9489H269.282C269.162 47.1974 268.963 47.4634 268.685 47.7468C268.407 48.0302 268.036 48.2713 267.574 48.4702C267.111 48.669 266.547 48.7685 265.881 48.7685ZM266.149 47.1875C266.845 47.1875 267.432 47.0508 267.909 46.7773C268.392 46.5039 268.755 46.1509 268.998 45.7184C269.247 45.2859 269.371 44.831 269.371 44.3537V42.7429C269.296 42.8324 269.132 42.9144 268.879 42.989C268.63 43.0586 268.342 43.1207 268.014 43.1754C267.691 43.2251 267.375 43.2699 267.067 43.3097C266.763 43.3445 266.517 43.3743 266.328 43.3991C265.871 43.4588 265.443 43.5558 265.046 43.69C264.653 43.8192 264.335 44.0156 264.091 44.2791C263.853 44.5376 263.733 44.8906 263.733 45.3381C263.733 45.9496 263.959 46.4119 264.412 46.7251C264.869 47.0334 265.448 47.1875 266.149 47.1875ZM279.325 37.0455V38.5369H273.389V37.0455H279.325ZM275.119 34.3011H276.879V45.2188C276.879 45.7159 276.951 46.0888 277.095 46.3374C277.244 46.581 277.433 46.745 277.662 46.8295C277.895 46.9091 278.142 46.9489 278.4 46.9489C278.594 46.9489 278.753 46.9389 278.877 46.919C279.002 46.8942 279.101 46.8743 279.176 46.8594L279.534 48.4403C279.414 48.4851 279.248 48.5298 279.034 48.5746C278.82 48.6243 278.549 48.6491 278.221 48.6491C277.724 48.6491 277.237 48.5423 276.759 48.3285C276.287 48.1147 275.894 47.7891 275.581 47.3516C275.273 46.9141 275.119 46.3622 275.119 45.696V34.3011ZM286.652 48.7386C285.548 48.7386 284.596 48.495 283.795 48.0078C283 47.5156 282.386 46.8295 281.953 45.9496C281.526 45.0646 281.312 44.0355 281.312 42.8622C281.312 41.6889 281.526 40.6548 281.953 39.7599C282.386 38.8601 282.988 38.1591 283.758 37.657C284.534 37.1499 285.439 36.8963 286.473 36.8963C287.069 36.8963 287.658 36.9957 288.24 37.1946C288.822 37.3935 289.351 37.7166 289.828 38.1641C290.306 38.6065 290.686 39.1932 290.969 39.924C291.253 40.6548 291.395 41.5547 291.395 42.6236V43.3693H282.565V41.848H289.605C289.605 41.2017 289.475 40.625 289.217 40.1179C288.963 39.6108 288.6 39.2106 288.128 38.9173C287.661 38.6239 287.109 38.4773 286.473 38.4773C285.772 38.4773 285.165 38.6513 284.653 38.9993C284.146 39.3423 283.756 39.7898 283.482 40.3416C283.209 40.8935 283.072 41.4851 283.072 42.1165V43.1307C283.072 43.9957 283.221 44.729 283.52 45.3306C283.823 45.9272 284.243 46.3821 284.78 46.6953C285.317 47.0036 285.941 47.1577 286.652 47.1577C287.114 47.1577 287.532 47.093 287.904 46.9638C288.282 46.8295 288.608 46.6307 288.881 46.3672C289.155 46.0987 289.366 45.7656 289.515 45.3679L291.216 45.8452C291.037 46.4219 290.736 46.929 290.313 47.3665C289.891 47.799 289.369 48.1371 288.747 48.3807C288.126 48.6193 287.427 48.7386 286.652 48.7386ZM298.397 48.7386C297.442 48.7386 296.6 48.4975 295.869 48.0153C295.138 47.5281 294.566 46.842 294.154 45.957C293.741 45.0671 293.535 44.0156 293.535 42.8026C293.535 41.5994 293.741 40.5554 294.154 39.6705C294.566 38.7855 295.141 38.1019 295.876 37.6197C296.612 37.1374 297.462 36.8963 298.427 36.8963C299.173 36.8963 299.762 37.0206 300.194 37.2692C300.632 37.5128 300.965 37.7912 301.194 38.1044C301.427 38.4126 301.609 38.6662 301.738 38.8651H301.887V33.2273H303.647V48.5H301.947V46.7401H301.738C301.609 46.9489 301.425 47.2124 301.186 47.5305C300.947 47.8437 300.607 48.1246 300.164 48.3732C299.722 48.6168 299.133 48.7386 298.397 48.7386ZM298.636 47.1577C299.342 47.1577 299.938 46.9737 300.425 46.6058C300.913 46.233 301.283 45.7184 301.537 45.0621C301.79 44.4009 301.917 43.6378 301.917 42.7727C301.917 41.9176 301.793 41.1694 301.544 40.5281C301.295 39.8817 300.928 39.3796 300.44 39.0217C299.953 38.6587 299.352 38.4773 298.636 38.4773C297.89 38.4773 297.268 38.6687 296.771 39.0515C296.279 39.4293 295.909 39.9439 295.66 40.5952C295.417 41.2415 295.295 41.9673 295.295 42.7727C295.295 43.5881 295.419 44.3288 295.668 44.995C295.921 45.6562 296.294 46.1832 296.786 46.576C297.283 46.9638 297.9 47.1577 298.636 47.1577Z" fill="white"/>
</g>
<defs>
<filter id="filter0_d_576_4863" x="0" y="0" width="334" height="82" filterUnits="userSpaceOnUse" color-interpolation-filters="sRGB">
<feFlood flood-opacity="0" result="BackgroundImageFix"/>
<feColorMatrix in="SourceAlpha" type="matrix" values="0 0 0 0 0 0 0 0 0 0 0 0 0 0 0 0 0 0 127 0" result="hardAlpha"/>
<feOffset/>
<feGaussianBlur stdDeviation="2"/>
<feComposite in2="hardAlpha" operator="out"/>
<feColorMatrix type="matrix" values="0 0 0 0 0 0 0 0 0 0 0 0 0 0 0 0 0 0 0.15 0"/>
<feBlend mode="normal" in2="BackgroundImageFix" result="effect1_dropShadow_576_4863"/>
<feBlend mode="normal" in="SourceGraphic" in2="effect1_dropShadow_576_4863" result="shape"/>
</filter>
</defs>
</svg>
