<svg width="334" height="82" viewBox="0 0 334 82" fill="none" xmlns="http://www.w3.org/2000/svg">
<g filter="url(#filter0_d_204_4006)">
<rect x="4" y="4" width="326" height="74" rx="20" fill="#2A3647" shape-rendering="crispEdges"/>
<path d="M37.5142 35.3679V33.7273H48.9688V35.3679H44.1662V49H42.3168V35.3679H37.5142ZM53.3966 49.2685C52.6707 49.2685 52.012 49.1317 51.4204 48.8583C50.8287 48.5799 50.3589 48.1797 50.0109 47.6577C49.6629 47.1307 49.4889 46.4943 49.4889 45.7486C49.4889 45.0923 49.6182 44.5604 49.8767 44.1527C50.1352 43.7401 50.4807 43.4169 50.9133 43.1832C51.3458 42.9496 51.8231 42.7756 52.3451 42.6612C52.8721 42.5419 53.4015 42.4474 53.9335 42.3778C54.6295 42.2884 55.1938 42.2212 55.6263 42.1765C56.0638 42.1268 56.382 42.0447 56.5809 41.9304C56.7847 41.8161 56.8866 41.6172 56.8866 41.3338V41.2741C56.8866 40.5384 56.6853 39.9666 56.2826 39.5589C55.8849 39.1513 55.2808 38.9474 54.4704 38.9474C53.6302 38.9474 52.9715 39.1314 52.4942 39.4993C52.017 39.8672 51.6814 40.2599 51.4875 40.6776L49.817 40.081C50.1153 39.3849 50.5131 38.843 51.0102 38.4553C51.5123 38.0625 52.0592 37.7891 52.6508 37.6349C53.2474 37.4759 53.8341 37.3963 54.4108 37.3963C54.7787 37.3963 55.2013 37.4411 55.6785 37.5305C56.1608 37.6151 56.6256 37.7915 57.0731 38.06C57.5255 38.3285 57.9008 38.7337 58.1991 39.2756C58.4974 39.8175 58.6466 40.5433 58.6466 41.4531V49H56.8866V47.4489H56.7971C56.6778 47.6974 56.479 47.9634 56.2006 48.2468C55.9221 48.5302 55.5518 48.7713 55.0894 48.9702C54.627 49.169 54.0628 49.2685 53.3966 49.2685ZM53.665 47.6875C54.3611 47.6875 54.9477 47.5508 55.425 47.2773C55.9072 47.0039 56.2702 46.6509 56.5138 46.2184C56.7623 45.7859 56.8866 45.331 56.8866 44.8537V43.2429C56.8121 43.3324 56.648 43.4144 56.3944 43.489C56.1459 43.5586 55.8575 43.6207 55.5294 43.6754C55.2062 43.7251 54.8905 43.7699 54.5823 43.8097C54.279 43.8445 54.0329 43.8743 53.844 43.8991C53.3866 43.9588 52.9591 44.0558 52.5613 44.19C52.1686 44.3192 51.8504 44.5156 51.6068 44.7791C51.3682 45.0376 51.2488 45.3906 51.2488 45.8381C51.2488 46.4496 51.4751 46.9119 51.9275 47.2251C52.3849 47.5334 52.964 47.6875 53.665 47.6875ZM69.9725 40.1108L68.3915 40.5582C68.2921 40.2947 68.1454 40.0387 67.9515 39.7901C67.7626 39.5366 67.5041 39.3278 67.176 39.1637C66.8478 38.9996 66.4277 38.9176 65.9157 38.9176C65.2147 38.9176 64.6305 39.0792 64.1632 39.4023C63.7008 39.7205 63.4696 40.1257 63.4696 40.6179C63.4696 41.0554 63.6287 41.4009 63.9469 41.6545C64.2651 41.908 64.7623 42.1193 65.4384 42.2884L67.1387 42.706C68.1628 42.9545 68.926 43.3349 69.4281 43.8469C69.9302 44.354 70.1813 45.0078 70.1813 45.8082C70.1813 46.4645 69.9924 47.0511 69.6145 47.5682C69.2417 48.0852 68.7196 48.4929 68.0485 48.7912C67.3773 49.0895 66.5968 49.2386 65.7069 49.2386C64.5385 49.2386 63.5716 48.9851 62.8059 48.478C62.0403 47.9709 61.5556 47.2301 61.3517 46.2557L63.0222 45.8381C63.1813 46.4545 63.4821 46.9169 63.9245 47.2251C64.372 47.5334 64.9561 47.6875 65.677 47.6875C66.4973 47.6875 67.1486 47.5135 67.6309 47.1655C68.1181 46.8125 68.3617 46.3899 68.3617 45.8977C68.3617 45.5 68.2225 45.1669 67.9441 44.8984C67.6657 44.625 67.2381 44.4212 66.6614 44.2869L64.7523 43.8395C63.7033 43.5909 62.9327 43.2056 62.4405 42.6836C61.9533 42.1566 61.7097 41.4979 61.7097 40.7074C61.7097 40.0611 61.8912 39.4893 62.2541 38.9922C62.622 38.495 63.1216 38.1048 63.753 37.8214C64.3894 37.538 65.1103 37.3963 65.9157 37.3963C67.0492 37.3963 67.9391 37.6449 68.5854 38.142C69.2367 38.6392 69.699 39.2955 69.9725 40.1108ZM74.4711 44.8239L74.4413 42.6463H74.7993L79.8106 37.5455H81.9882L76.6487 42.9446H76.4996L74.4711 44.8239ZM72.8305 49V33.7273H74.5905V49H72.8305ZM80.1089 49L75.6345 43.3324L76.8873 42.1094L82.3461 49H80.1089ZM93.5304 49.2685C92.8045 49.2685 92.1458 49.1317 91.5542 48.8583C90.9625 48.5799 90.4927 48.1797 90.1447 47.6577C89.7967 47.1307 89.6227 46.4943 89.6227 45.7486C89.6227 45.0923 89.752 44.5604 90.0105 44.1527C90.269 43.7401 90.6145 43.4169 91.0471 43.1832C91.4796 42.9496 91.9569 42.7756 92.4789 42.6612C93.0059 42.5419 93.5353 42.4474 94.0673 42.3778C94.7633 42.2884 95.3276 42.2212 95.7601 42.1765C96.1976 42.1268 96.5158 42.0447 96.7147 41.9304C96.9185 41.8161 97.0204 41.6172 97.0204 41.3338V41.2741C97.0204 40.5384 96.8191 39.9666 96.4164 39.5589C96.0186 39.1513 95.4146 38.9474 94.6042 38.9474C93.764 38.9474 93.1053 39.1314 92.628 39.4993C92.1507 39.8672 91.8152 40.2599 91.6213 40.6776L89.9508 40.081C90.2491 39.3849 90.6468 38.843 91.144 38.4553C91.6461 38.0625 92.193 37.7891 92.7846 37.6349C93.3812 37.4759 93.9679 37.3963 94.5446 37.3963C94.9125 37.3963 95.335 37.4411 95.8123 37.5305C96.2946 37.6151 96.7594 37.7915 97.2069 38.06C97.6593 38.3285 98.0346 38.7337 98.3329 39.2756C98.6312 39.8175 98.7804 40.5433 98.7804 41.4531V49H97.0204V47.4489H96.9309C96.8116 47.6974 96.6127 47.9634 96.3343 48.2468C96.0559 48.5302 95.6855 48.7713 95.2232 48.9702C94.7608 49.169 94.1966 49.2685 93.5304 49.2685ZM93.7988 47.6875C94.4949 47.6875 95.0815 47.5508 95.5588 47.2773C96.041 47.0039 96.4039 46.6509 96.6475 46.2184C96.8961 45.7859 97.0204 45.331 97.0204 44.8537V43.2429C96.9458 43.3324 96.7818 43.4144 96.5282 43.489C96.2797 43.5586 95.9913 43.6207 95.6632 43.6754C95.34 43.7251 95.0243 43.7699 94.7161 43.8097C94.4128 43.8445 94.1667 43.8743 93.9778 43.8991C93.5204 43.9588 93.0929 44.0558 92.6951 44.19C92.3024 44.3192 91.9842 44.5156 91.7406 44.7791C91.502 45.0376 91.3826 45.3906 91.3826 45.8381C91.3826 46.4496 91.6088 46.9119 92.0613 47.2251C92.5186 47.5334 93.0978 47.6875 93.7988 47.6875ZM106.318 49.2386C105.363 49.2386 104.521 48.9975 103.79 48.5153C103.059 48.0281 102.487 47.342 102.075 46.457C101.662 45.5671 101.456 44.5156 101.456 43.3026C101.456 42.0994 101.662 41.0554 102.075 40.1705C102.487 39.2855 103.062 38.6019 103.797 38.1197C104.533 37.6374 105.383 37.3963 106.348 37.3963C107.093 37.3963 107.683 37.5206 108.115 37.7692C108.553 38.0128 108.886 38.2912 109.114 38.6044C109.348 38.9126 109.53 39.1662 109.659 39.3651H109.808V33.7273H111.568V49H109.868V47.2401H109.659C109.53 47.4489 109.346 47.7124 109.107 48.0305C108.868 48.3437 108.528 48.6246 108.085 48.8732C107.643 49.1168 107.054 49.2386 106.318 49.2386ZM106.557 47.6577C107.263 47.6577 107.859 47.4737 108.346 47.1058C108.834 46.733 109.204 46.2184 109.457 45.5621C109.711 44.9009 109.838 44.1378 109.838 43.2727C109.838 42.4176 109.714 41.6694 109.465 41.0281C109.216 40.3817 108.848 39.8796 108.361 39.5217C107.874 39.1587 107.272 38.9773 106.557 38.9773C105.811 38.9773 105.189 39.1687 104.692 39.5515C104.2 39.9293 103.83 40.4439 103.581 41.0952C103.337 41.7415 103.216 42.4673 103.216 43.2727C103.216 44.0881 103.34 44.8288 103.589 45.495C103.842 46.1562 104.215 46.6832 104.707 47.076C105.204 47.4638 105.821 47.6577 106.557 47.6577ZM119.361 49.2386C118.406 49.2386 117.564 48.9975 116.833 48.5153C116.102 48.0281 115.53 47.342 115.118 46.457C114.705 45.5671 114.499 44.5156 114.499 43.3026C114.499 42.0994 114.705 41.0554 115.118 40.1705C115.53 39.2855 116.104 38.6019 116.84 38.1197C117.576 37.6374 118.426 37.3963 119.391 37.3963C120.136 37.3963 120.726 37.5206 121.158 37.7692C121.596 38.0128 121.929 38.2912 122.157 38.6044C122.391 38.9126 122.573 39.1662 122.702 39.3651H122.851V33.7273H124.611V49H122.911V47.2401H122.702C122.573 47.4489 122.389 47.7124 122.15 48.0305C121.911 48.3437 121.571 48.6246 121.128 48.8732C120.686 49.1168 120.097 49.2386 119.361 49.2386ZM119.6 47.6577C120.305 47.6577 120.902 47.4737 121.389 47.1058C121.877 46.733 122.247 46.2184 122.5 45.5621C122.754 44.9009 122.881 44.1378 122.881 43.2727C122.881 42.4176 122.756 41.6694 122.508 41.0281C122.259 40.3817 121.891 39.8796 121.404 39.5217C120.917 39.1587 120.315 38.9773 119.6 38.9773C118.854 38.9773 118.232 39.1687 117.735 39.5515C117.243 39.9293 116.873 40.4439 116.624 41.0952C116.38 41.7415 116.259 42.4673 116.259 43.2727C116.259 44.0881 116.383 44.8288 116.631 45.495C116.885 46.1562 117.258 46.6832 117.75 47.076C118.247 47.4638 118.864 47.6577 119.6 47.6577ZM132.881 49.2386C131.777 49.2386 130.825 48.995 130.025 48.5078C129.229 48.0156 128.616 47.3295 128.183 46.4496C127.755 45.5646 127.542 44.5355 127.542 43.3622C127.542 42.1889 127.755 41.1548 128.183 40.2599C128.616 39.3601 129.217 38.6591 129.988 38.157C130.763 37.6499 131.668 37.3963 132.702 37.3963C133.299 37.3963 133.888 37.4957 134.47 37.6946C135.051 37.8935 135.581 38.2166 136.058 38.6641C136.535 39.1065 136.916 39.6932 137.199 40.424C137.482 41.1548 137.624 42.0547 137.624 43.1236V43.8693H128.794V42.348H135.834C135.834 41.7017 135.705 41.125 135.446 40.6179C135.193 40.1108 134.83 39.7106 134.358 39.4173C133.89 39.1239 133.339 38.9773 132.702 38.9773C132.001 38.9773 131.395 39.1513 130.883 39.4993C130.375 39.8423 129.985 40.2898 129.712 40.8416C129.438 41.3935 129.302 41.9851 129.302 42.6165V43.6307C129.302 44.4957 129.451 45.229 129.749 45.8306C130.052 46.4272 130.472 46.8821 131.009 47.1953C131.546 47.5036 132.17 47.6577 132.881 47.6577C133.343 47.6577 133.761 47.593 134.134 47.4638C134.512 47.3295 134.837 47.1307 135.111 46.8672C135.384 46.5987 135.596 46.2656 135.745 45.8679L137.445 46.3452C137.266 46.9219 136.965 47.429 136.543 47.8665C136.12 48.299 135.598 48.6371 134.977 48.8807C134.355 49.1193 133.657 49.2386 132.881 49.2386ZM144.627 49.2386C143.672 49.2386 142.829 48.9975 142.098 48.5153C141.368 48.0281 140.796 47.342 140.383 46.457C139.971 45.5671 139.764 44.5156 139.764 43.3026C139.764 42.0994 139.971 41.0554 140.383 40.1705C140.796 39.2855 141.37 38.6019 142.106 38.1197C142.842 37.6374 143.692 37.3963 144.656 37.3963C145.402 37.3963 145.991 37.5206 146.424 37.7692C146.861 38.0128 147.194 38.2912 147.423 38.6044C147.657 38.9126 147.838 39.1662 147.967 39.3651H148.117V33.7273H149.877V49H148.176V47.2401H147.967C147.838 47.4489 147.654 47.7124 147.416 48.0305C147.177 48.3437 146.836 48.6246 146.394 48.8732C145.951 49.1168 145.362 49.2386 144.627 49.2386ZM144.865 47.6577C145.571 47.6577 146.168 47.4737 146.655 47.1058C147.142 46.733 147.513 46.2184 147.766 45.5621C148.02 44.9009 148.146 44.1378 148.146 43.2727C148.146 42.4176 148.022 41.6694 147.774 41.0281C147.525 40.3817 147.157 39.8796 146.67 39.5217C146.183 39.1587 145.581 38.9773 144.865 38.9773C144.119 38.9773 143.498 39.1687 143.001 39.5515C142.509 39.9293 142.138 40.4439 141.89 41.0952C141.646 41.7415 141.524 42.4673 141.524 43.2727C141.524 44.0881 141.649 44.8288 141.897 45.495C142.151 46.1562 142.524 46.6832 143.016 47.076C143.513 47.4638 144.129 47.6577 144.865 47.6577ZM164.232 37.5455V39.0369H158.296V37.5455H164.232ZM160.026 34.8011H161.786V45.7188C161.786 46.2159 161.858 46.5888 162.002 46.8374C162.151 47.081 162.34 47.245 162.569 47.3295C162.803 47.4091 163.049 47.4489 163.307 47.4489C163.501 47.4489 163.66 47.4389 163.785 47.419C163.909 47.3942 164.008 47.3743 164.083 47.3594L164.441 48.9403C164.321 48.9851 164.155 49.0298 163.941 49.0746C163.727 49.1243 163.456 49.1491 163.128 49.1491C162.631 49.1491 162.144 49.0423 161.667 48.8285C161.194 48.6147 160.802 48.2891 160.488 47.8516C160.18 47.4141 160.026 46.8622 160.026 46.196V34.8011ZM171.41 49.2386C170.376 49.2386 169.468 48.9925 168.688 48.5004C167.912 48.0082 167.306 47.3196 166.868 46.4347C166.436 45.5497 166.219 44.5156 166.219 43.3324C166.219 42.1392 166.436 41.0977 166.868 40.2077C167.306 39.3178 167.912 38.6268 168.688 38.1346C169.468 37.6424 170.376 37.3963 171.41 37.3963C172.444 37.3963 173.349 37.6424 174.124 38.1346C174.905 38.6268 175.511 39.3178 175.944 40.2077C176.381 41.0977 176.6 42.1392 176.6 43.3324C176.6 44.5156 176.381 45.5497 175.944 46.4347C175.511 47.3196 174.905 48.0082 174.124 48.5004C173.349 48.9925 172.444 49.2386 171.41 49.2386ZM171.41 47.6577C172.195 47.6577 172.842 47.4563 173.349 47.0536C173.856 46.6509 174.231 46.1214 174.475 45.4652C174.718 44.8089 174.84 44.098 174.84 43.3324C174.84 42.5668 174.718 41.8533 174.475 41.1921C174.231 40.5309 173.856 39.9964 173.349 39.5888C172.842 39.1811 172.195 38.9773 171.41 38.9773C170.624 38.9773 169.978 39.1811 169.471 39.5888C168.964 39.9964 168.588 40.5309 168.345 41.1921C168.101 41.8533 167.979 42.5668 167.979 43.3324C167.979 44.098 168.101 44.8089 168.345 45.4652C168.588 46.1214 168.964 46.6509 169.471 47.0536C169.978 47.4563 170.624 47.6577 171.41 47.6577ZM185.431 49V33.7273H187.191V39.3651H187.341C187.47 39.1662 187.649 38.9126 187.877 38.6044C188.111 38.2912 188.444 38.0128 188.877 37.7692C189.314 37.5206 189.906 37.3963 190.652 37.3963C191.616 37.3963 192.466 37.6374 193.202 38.1197C193.938 38.6019 194.512 39.2855 194.925 40.1705C195.337 41.0554 195.544 42.0994 195.544 43.3026C195.544 44.5156 195.337 45.5671 194.925 46.457C194.512 47.342 193.94 48.0281 193.21 48.5153C192.479 48.9975 191.636 49.2386 190.681 49.2386C189.946 49.2386 189.357 49.1168 188.914 48.8732C188.472 48.6246 188.131 48.3437 187.892 48.0305C187.654 47.7124 187.47 47.4489 187.341 47.2401H187.132V49H185.431ZM187.162 43.2727C187.162 44.1378 187.288 44.9009 187.542 45.5621C187.795 46.2184 188.166 46.733 188.653 47.1058C189.14 47.4737 189.737 47.6577 190.443 47.6577C191.179 47.6577 191.793 47.4638 192.285 47.076C192.782 46.6832 193.155 46.1562 193.403 45.495C193.657 44.8288 193.784 44.0881 193.784 43.2727C193.784 42.4673 193.659 41.7415 193.411 41.0952C193.167 40.4439 192.797 39.9293 192.3 39.5515C191.808 39.1687 191.189 38.9773 190.443 38.9773C189.727 38.9773 189.125 39.1587 188.638 39.5217C188.151 39.8796 187.783 40.3817 187.534 41.0281C187.286 41.6694 187.162 42.4176 187.162 43.2727ZM202.889 49.2386C201.855 49.2386 200.948 48.9925 200.167 48.5004C199.392 48.0082 198.785 47.3196 198.348 46.4347C197.915 45.5497 197.699 44.5156 197.699 43.3324C197.699 42.1392 197.915 41.0977 198.348 40.2077C198.785 39.3178 199.392 38.6268 200.167 38.1346C200.948 37.6424 201.855 37.3963 202.889 37.3963C203.923 37.3963 204.828 37.6424 205.604 38.1346C206.384 38.6268 206.991 39.3178 207.423 40.2077C207.861 41.0977 208.08 42.1392 208.08 43.3324C208.08 44.5156 207.861 45.5497 207.423 46.4347C206.991 47.3196 206.384 48.0082 205.604 48.5004C204.828 48.9925 203.923 49.2386 202.889 49.2386ZM202.889 47.6577C203.675 47.6577 204.321 47.4563 204.828 47.0536C205.335 46.6509 205.711 46.1214 205.954 45.4652C206.198 44.8089 206.32 44.098 206.32 43.3324C206.32 42.5668 206.198 41.8533 205.954 41.1921C205.711 40.5309 205.335 39.9964 204.828 39.5888C204.321 39.1811 203.675 38.9773 202.889 38.9773C202.104 38.9773 201.457 39.1811 200.95 39.5888C200.443 39.9964 200.068 40.5309 199.824 41.1921C199.581 41.8533 199.459 42.5668 199.459 43.3324C199.459 44.098 199.581 44.8089 199.824 45.4652C200.068 46.1214 200.443 46.6509 200.95 47.0536C201.457 47.4563 202.104 47.6577 202.889 47.6577ZM214.137 49.2685C213.411 49.2685 212.752 49.1317 212.161 48.8583C211.569 48.5799 211.099 48.1797 210.751 47.6577C210.403 47.1307 210.229 46.4943 210.229 45.7486C210.229 45.0923 210.358 44.5604 210.617 44.1527C210.875 43.7401 211.221 43.4169 211.653 43.1832C212.086 42.9496 212.563 42.7756 213.085 42.6612C213.612 42.5419 214.142 42.4474 214.674 42.3778C215.37 42.2884 215.934 42.2212 216.367 42.1765C216.804 42.1268 217.122 42.0447 217.321 41.9304C217.525 41.8161 217.627 41.6172 217.627 41.3338V41.2741C217.627 40.5384 217.426 39.9666 217.023 39.5589C216.625 39.1513 216.021 38.9474 215.211 38.9474C214.37 38.9474 213.712 39.1314 213.234 39.4993C212.757 39.8672 212.422 40.2599 212.228 40.6776L210.557 40.081C210.856 39.3849 211.253 38.843 211.75 38.4553C212.253 38.0625 212.799 37.7891 213.391 37.6349C213.988 37.4759 214.574 37.3963 215.151 37.3963C215.519 37.3963 215.941 37.4411 216.419 37.5305C216.901 37.6151 217.366 37.7915 217.813 38.06C218.266 38.3285 218.641 38.7337 218.939 39.2756C219.238 39.8175 219.387 40.5433 219.387 41.4531V49H217.627V47.4489H217.537C217.418 47.6974 217.219 47.9634 216.941 48.2468C216.662 48.5302 216.292 48.7713 215.83 48.9702C215.367 49.169 214.803 49.2685 214.137 49.2685ZM214.405 47.6875C215.101 47.6875 215.688 47.5508 216.165 47.2773C216.647 47.0039 217.01 46.6509 217.254 46.2184C217.503 45.7859 217.627 45.331 217.627 44.8537V43.2429C217.552 43.3324 217.388 43.4144 217.135 43.489C216.886 43.5586 216.598 43.6207 216.27 43.6754C215.946 43.7251 215.631 43.7699 215.323 43.8097C215.019 43.8445 214.773 43.8743 214.584 43.8991C214.127 43.9588 213.699 44.0558 213.302 44.19C212.909 44.3192 212.591 44.5156 212.347 44.7791C212.108 45.0376 211.989 45.3906 211.989 45.8381C211.989 46.4496 212.215 46.9119 212.668 47.2251C213.125 47.5334 213.704 47.6875 214.405 47.6875ZM222.599 49V37.5455H224.299V39.2756H224.419C224.627 38.7088 225.005 38.2489 225.552 37.896C226.099 37.543 226.716 37.3665 227.402 37.3665C227.531 37.3665 227.692 37.369 227.886 37.3739C228.08 37.3789 228.227 37.3864 228.326 37.3963V39.1861C228.267 39.1712 228.13 39.1488 227.916 39.119C227.707 39.0842 227.486 39.0668 227.252 39.0668C226.696 39.0668 226.199 39.1836 225.761 39.4173C225.328 39.646 224.985 39.9641 224.732 40.3718C224.483 40.7745 224.359 41.2344 224.359 41.7514V49H222.599ZM234.389 49.2386C233.435 49.2386 232.592 48.9975 231.861 48.5153C231.13 48.0281 230.559 47.342 230.146 46.457C229.733 45.5671 229.527 44.5156 229.527 43.3026C229.527 42.0994 229.733 41.0554 230.146 40.1705C230.559 39.2855 231.133 38.6019 231.869 38.1197C232.604 37.6374 233.455 37.3963 234.419 37.3963C235.165 37.3963 235.754 37.5206 236.186 37.7692C236.624 38.0128 236.957 38.2912 237.186 38.6044C237.419 38.9126 237.601 39.1662 237.73 39.3651H237.879V33.7273H239.639V49H237.939V47.2401H237.73C237.601 47.4489 237.417 47.7124 237.178 48.0305C236.94 48.3437 236.599 48.6246 236.157 48.8732C235.714 49.1168 235.125 49.2386 234.389 49.2386ZM234.628 47.6577C235.334 47.6577 235.93 47.4737 236.418 47.1058C236.905 46.733 237.275 46.2184 237.529 45.5621C237.782 44.9009 237.909 44.1378 237.909 43.2727C237.909 42.4176 237.785 41.6694 237.536 41.0281C237.288 40.3817 236.92 39.8796 236.433 39.5217C235.945 39.1587 235.344 38.9773 234.628 38.9773C233.882 38.9773 233.261 39.1687 232.763 39.5515C232.271 39.9293 231.901 40.4439 231.652 41.0952C231.409 41.7415 231.287 42.4673 231.287 43.2727C231.287 44.0881 231.411 44.8288 231.66 45.495C231.913 46.1562 232.286 46.6832 232.778 47.076C233.276 47.4638 233.892 47.6577 234.628 47.6577Z" fill="white"/>
<path d="M291.5 31.9998L291.5 49.9998C291.499 50.5301 291.289 51.0385 290.914 51.4134C290.539 51.7884 290.03 51.9993 289.5 51.9998L285.5 51.9998C284.97 51.9993 284.461 51.7884 284.086 51.4134C283.711 51.0385 283.501 50.5301 283.5 49.9998L283.5 31.9998C283.501 31.4695 283.711 30.9611 284.086 30.5862C284.461 30.2112 284.97 30.0003 285.5 29.9998L289.5 29.9998C290.03 30.0003 290.539 30.2112 290.914 30.5862C291.289 30.9611 291.499 31.4695 291.5 31.9998ZM285.5 49.9998L289.5 49.9998L289.5 31.9998L285.5 31.9998L285.5 49.9998ZM285.5 31.9998L285.5 49.9998C285.499 50.5301 285.289 51.0384 284.914 51.4134C284.539 51.7883 284.03 51.9992 283.5 51.9998L279.5 51.9998C278.97 51.9992 278.461 51.7883 278.086 51.4134C277.711 51.0384 277.501 50.53 277.5 49.9998L277.5 31.9998C277.501 31.4695 277.711 30.9611 278.086 30.5861C278.461 30.2112 278.97 30.0003 279.5 29.9998L283.5 29.9998C284.03 30.0003 284.539 30.2112 284.914 30.5861C285.289 30.9611 285.499 31.4695 285.5 31.9998ZM279.5 49.9998L283.5 49.9998L283.5 31.9998L279.5 31.9998L279.5 49.9998ZM279.5 31.9998L279.5 49.9998C279.499 50.53 279.289 51.0384 278.914 51.4134C278.539 51.7883 278.03 51.9992 277.5 51.9998L273.5 51.9998C272.97 51.9992 272.461 51.7883 272.086 51.4134C271.711 51.0384 271.501 50.53 271.5 49.9998L271.5 31.9998C271.501 31.4695 271.711 30.9611 272.086 30.5861C272.461 30.2112 272.97 30.0003 273.5 29.9998L277.5 29.9998C278.03 30.0003 278.539 30.2112 278.914 30.5861C279.289 30.9611 279.499 31.4695 279.5 31.9998ZM273.5 49.9998L277.5 49.9998L277.5 31.9998L273.5 31.9998L273.5 49.9998Z" fill="white"/>
<path d="M297.5 32L297.5 50C297.499 50.5303 297.289 51.0387 296.914 51.4136C296.539 51.7886 296.03 51.9995 295.5 52L291.5 52C290.97 51.9995 290.461 51.7886 290.086 51.4136C289.711 51.0387 289.501 50.5301 289.5 49.9998L289.5 31.9998C289.501 31.4695 289.711 30.9613 290.086 30.5864C290.461 30.2114 290.97 30.0005 291.5 30L295.5 30C296.03 30.0005 296.539 30.2114 296.914 30.5864C297.289 30.9613 297.499 31.4697 297.5 32ZM291.5 49.9998L295.5 50L295.5 32L291.5 31.9998L291.5 49.9998Z" fill="white"/>
</g>
<defs>
<filter id="filter0_d_204_4006" x="0" y="0" width="334" height="82" filterUnits="userSpaceOnUse" color-interpolation-filters="sRGB">
<feFlood flood-opacity="0" result="BackgroundImageFix"/>
<feColorMatrix in="SourceAlpha" type="matrix" values="0 0 0 0 0 0 0 0 0 0 0 0 0 0 0 0 0 0 127 0" result="hardAlpha"/>
<feOffset/>
<feGaussianBlur stdDeviation="2"/>
<feComposite in2="hardAlpha" operator="out"/>
<feColorMatrix type="matrix" values="0 0 0 0 0 0 0 0 0 0 0 0 0 0 0 0 0 0 0.15 0"/>
<feBlend mode="normal" in2="BackgroundImageFix" result="effect1_dropShadow_204_4006"/>
<feBlend mode="normal" in="SourceGraphic" in2="effect1_dropShadow_204_4006" result="shape"/>
</filter>
</defs>
</svg>
