<svg width="20" height="9" viewBox="0 0 20 9" fill="none" xmlns="http://www.w3.org/2000/svg">
<g clip-path="url(#clip0_156_1126)">
<path d="M18.9041 8.22552H1.09589C0.805242 8.22552 0.526498 8.10922 0.320979 7.90221C0.11546 7.6952 0 7.41443 0 7.12167C0 6.82891 0.11546 6.54814 0.320979 6.34113C0.526498 6.13412 0.805242 6.01782 1.09589 6.01782H18.9041C19.1948 6.01782 19.4735 6.13412 19.679 6.34113C19.8845 6.54814 20 6.82891 20 7.12167C20 7.41443 19.8845 7.6952 19.679 7.90221C19.4735 8.10922 19.1948 8.22552 18.9041 8.22552Z" fill="#ffa800"/>
<path d="M18.9041 2.98223H1.09589C0.805242 2.98223 0.526498 2.86594 0.320979 2.65892C0.11546 2.45191 0 2.17114 0 1.87839C0 1.58563 0.11546 1.30486 0.320979 1.09785C0.526498 0.890834 0.805242 0.774536 1.09589 0.774536L18.9041 0.774536C19.1948 0.774536 19.4735 0.890834 19.679 1.09785C19.8845 1.30486 20 1.58563 20 1.87839C20 2.17114 19.8845 2.45191 19.679 2.65892C19.4735 2.86594 19.1948 2.98223 18.9041 2.98223Z" fill="#ffa800"/>
</g>
<defs>
<clipPath id="clip0_156_1126">
<rect width="20" height="7.45098" fill="white" transform="translate(0 0.774536)"/>
</clipPath>
</defs>
</svg>
