<svg width="21" height="15" viewBox="0 0 21 15" fill="none" xmlns="http://www.w3.org/2000/svg">
<path d="M10.5 9.00614C10.2654 9.00654 10.0369 8.9317 9.84802 8.79262L0.944913 2.22288C0.829075 2.13733 0.731235 2.02981 0.65698 1.90647C0.582724 1.78313 0.533508 1.64638 0.51214 1.50404C0.468986 1.21655 0.541885 0.923717 0.714802 0.689945C0.887718 0.456173 1.14649 0.300615 1.43418 0.257493C1.72188 0.21437 2.01493 0.287216 2.24888 0.460004L10.5 6.54248L18.7511 0.460004C18.867 0.374448 18.9985 0.312529 19.1383 0.277782C19.2781 0.243035 19.4234 0.236141 19.5658 0.257493C19.7083 0.278844 19.8451 0.328025 19.9685 0.402225C20.092 0.476425 20.1996 0.574193 20.2852 0.689945C20.3708 0.805697 20.4328 0.937168 20.4676 1.07685C20.5023 1.21653 20.5092 1.36169 20.4879 1.50404C20.4665 1.64638 20.4173 1.78313 20.343 1.90647C20.2688 2.02981 20.1709 2.13733 20.0551 2.22288L11.152 8.79262C10.9631 8.9317 10.7346 9.00654 10.5 9.00614Z" fill="#7AE229 "/>
<path d="M10.5 14.7547C10.2654 14.7551 10.0369 14.6802 9.84802 14.5412L0.944913 7.97142C0.710967 7.79863 0.555294 7.54005 0.51214 7.25257C0.468986 6.96509 0.541886 6.67225 0.714802 6.43848C0.887718 6.20471 1.14649 6.04915 1.43418 6.00603C1.72188 5.96291 2.01493 6.03575 2.24888 6.20854L10.5 12.291L18.7511 6.20854C18.9851 6.03575 19.2781 5.96291 19.5658 6.00603C19.8535 6.04915 20.1123 6.20471 20.2852 6.43848C20.4581 6.67225 20.531 6.96509 20.4879 7.25257C20.4447 7.54005 20.289 7.79863 20.0551 7.97142L11.152 14.5412C10.9631 14.6802 10.7346 14.7551 10.5 14.7547Z" fill="#7AE229"/>
</svg>
