<svg width="21" height="15" viewBox="0 0 21 15" fill="none" xmlns="http://www.w3.org/2000/svg">
<g clip-path="url(#clip0_156_1009)">
<path d="M19.4043 14.7549C19.1696 14.7553 18.9411 14.6805 18.7522 14.5414L10.5001 8.4582L2.24809 14.5414C2.13224 14.6269 2.00066 14.6889 1.86086 14.7236C1.72106 14.7584 1.57577 14.7653 1.43331 14.7439C1.29084 14.7225 1.15397 14.6734 1.03053 14.5992C0.907083 14.5249 0.799474 14.4272 0.713845 14.3114C0.628216 14.1956 0.566244 14.0641 0.531467 13.9244C0.49669 13.7848 0.48979 13.6396 0.51116 13.4972C0.554319 13.2097 0.71001 12.9511 0.943982 12.7783L9.84809 6.20781C10.0368 6.06822 10.2654 5.99287 10.5001 5.99287C10.7349 5.99287 10.9635 6.06822 11.1522 6.20781L20.0563 12.7783C20.2422 12.9152 20.3801 13.1073 20.4503 13.3272C20.5204 13.5471 20.5193 13.7835 20.4469 14.0027C20.3746 14.2218 20.2349 14.4126 20.0476 14.5477C19.8604 14.6828 19.6352 14.7553 19.4043 14.7549Z" fill="#FF3D00"/>
<path d="M19.4043 9.00577C19.1696 9.00618 18.9411 8.93133 18.7522 8.79223L10.5002 2.70907L2.2481 8.79223C2.01412 8.96504 1.72104 9.0379 1.43331 8.99477C1.14558 8.95164 0.886785 8.79607 0.713849 8.56227C0.540914 8.32847 0.468006 8.0356 0.511165 7.74808C0.554324 7.46057 0.710015 7.20196 0.943986 7.02916L9.8481 0.45868C10.0368 0.319089 10.2654 0.243744 10.5002 0.243744C10.7349 0.243744 10.9635 0.319089 11.1522 0.45868L20.0563 7.02916C20.2422 7.16607 20.3801 7.35819 20.4503 7.57806C20.5204 7.79794 20.5193 8.03435 20.447 8.25353C20.3746 8.47271 20.2349 8.66347 20.0476 8.79856C19.8604 8.93365 19.6352 9.00617 19.4043 9.00577Z" fill="#FF3D00"/>
</g>
<defs>
<clipPath id="clip0_156_1009">
<rect width="20" height="14.5098" fill="white" transform="translate(0.5 0.245102)"/>
</clipPath>
</defs>
</svg>
